<?xml version="1.0" encoding="UTF-8"?>
<svg id="Layer_1" xmlns="http://www.w3.org/2000/svg" version="1.1" viewBox="0 0 2000 700">
  <!-- Generator: Adobe Illustrator 30.4.0, SVG Export Plug-In . SVG Version: 2.1.4 Build 226)  -->
  <defs>
    <style>
      .st0 {
        fill: #fff;
      }

      .st1 {
        fill: #1b5246;
      }
    </style>
  </defs>
  <g>
    <g>
      <polygon class="st1" points="1288.69 -1731.83 1199.06 -1866.34 1096.84 -2019.61 1000.91 -2019.61 1086.93 -1761.46 1096.84 -1731.83 1128.28 -1731.83 1288.69 -1731.83"/>
      <polygon class="st1" points="1437.66 -1632.49 1464.03 -1703.76 1535.29 -1730.13 1464.03 -1756.5 1437.66 -1827.76 1411.29 -1756.5 1340.03 -1730.13 1411.29 -1703.76 1437.66 -1632.49"/>
    </g>
    <g>
      <path class="st1" d="M1576.48-1252.19h-671.5c-105.95,0-191.85-85.91-191.85-191.86h191.85c52.98,0,95.93,42.96,95.93,95.93h671.5v-287.78c0-26.44-10.77-50.52-28.14-67.79-17.27-17.37-41.36-28.14-67.79-28.14,0,62.78-30.17,118.52-76.74,153.48-32.09,24.09-71.95,38.38-115.12,38.38-38.37,0-86.76-11.3-132.81-30.81-81.11-34.11-154.97-93.47-154.97-161.05h-95.93l-58.3-87.4-133.56-200.38h-95.92l66.29,198.78,29.63,89H259.66c-19.01,0-28.53,22.98-15.09,36.42l180.77,151.7v147.63c0,238.41,193.27,431.67,431.68,431.67h623.53c0,22.6-4.58,43.49-12.68,62.14-19.65,44.72-59.55,76.58-105.32,87.79-18.81,4.6-38.54,3.77-57.04-1.94l-11.48-3.54c-26.52-8.17-48.19-17.74-77.55-27.47-26.56-8.81-99.17-19.66-127.55-19.66l-88.02-1.39s-287.78,0-287.78,287.79v232.68c0,22.49-13.01,43.7-34.01,51.58-18.97,7.15-38.37,2.78-52.12-8.42-9.16-7.46-15.77-18.12-18.33-30.37l-86.87-434.45c-.1-.85-.21-1.6-.43-2.35v-.1c0-.11,0-.32-.1-.43-9.49-47.11-32.72-89.11-65.44-121.83-43.39-43.38-103.4-70.24-169.59-70.24h-47.96l143.89,239.82h-143.89l188.87,317.63,61.93,104.14c24.09,40.5,59.26,73.33,101.26,94.54,24.4,7.89,50.63,11.94,77.91,11.51,77.49-1.39,140.8-69.81,140.8-147.3v-236.41s0-95.93,191.86-95.93c61.39,0,121.61,12.15,177.25,35.28,55.75,23.02,106.91,57.02,150.29,100.4l56.17,56.18c96.56,96.55,257.84,82.35,334.39-30.72,31.14-45.98,49.32-101.44,49.32-161.14v-383.71c0-105.96-85.89-191.86-191.85-191.86ZM1044.77-1531.76c24.22,0,43.85,19.63,43.85,43.86s-19.63,43.85-43.85,43.85-43.86-19.63-43.86-43.85,19.63-43.86,43.86-43.86Z"/>
      <path class="st1" d="M1672.4-165c-29.04-19.36-66.88-19.36-95.93,0v-146.82h-175.7l79.77,210.77h287.79l-95.93-63.95Z"/>
      <path class="st1" d="M1013.54-101.05h287.79l-95.93-63.95c-29.04-19.36-66.88-19.36-95.93,0v-127.9c191.86,0,161.71-191.86,161.71-191.86l-353.57-39.15,95.93,422.86Z"/>
    </g>
  </g>
  <g>
    <g>
      <polygon points="3345.39 -1731.83 3255.75 -1866.34 3153.53 -2019.61 3057.6 -2019.61 3143.62 -1761.46 3153.53 -1731.83 3184.97 -1731.83 3345.39 -1731.83"/>
      <polygon points="3494.35 -1632.49 3520.72 -1703.76 3591.98 -1730.13 3520.72 -1756.5 3494.35 -1827.76 3467.98 -1756.5 3396.72 -1730.13 3467.98 -1703.76 3494.35 -1632.49"/>
    </g>
    <g>
      <path d="M3633.17-1252.19h-671.5c-105.94,0-191.85-85.91-191.85-191.86h191.85c52.98,0,95.93,42.96,95.93,95.93h671.5v-287.78c0-26.44-10.77-50.52-28.14-67.79-17.27-17.37-41.35-28.14-67.79-28.14,0,62.78-30.16,118.52-76.74,153.48-32.08,24.09-71.95,38.38-115.11,38.38-38.38,0-86.77-11.3-132.81-30.81-81.12-34.11-154.98-93.47-154.98-161.05h-95.93l-58.3-87.4-133.55-200.38h-95.93l66.3,198.78,29.63,89h-549.4c-19.01,0-28.53,22.98-15.08,36.42l180.76,151.7v147.63c0,238.41,193.27,431.67,431.68,431.67h623.53c0,22.6-4.58,43.49-12.68,62.14-19.65,44.72-59.55,76.58-105.32,87.79-18.81,4.6-38.53,3.77-57.03-1.94l-11.49-3.54c-26.52-8.17-48.19-17.74-77.55-27.47-26.56-8.81-99.17-19.66-127.55-19.66l-88.02-1.39s-287.78,0-287.78,287.79v232.68c0,22.49-13,43.7-34,51.58-18.98,7.15-38.37,2.78-52.12-8.42-9.17-7.46-15.78-18.12-18.34-30.37l-86.86-434.45c-.11-.85-.22-1.6-.43-2.35v-.1c0-.11,0-.32-.11-.43-9.48-47.11-32.72-89.11-65.44-121.83-43.38-43.38-103.39-70.24-169.58-70.24h-47.97l143.9,239.82h-143.9l188.88,317.63,61.92,104.14c24.09,40.5,59.27,73.33,101.26,94.54,24.41,7.89,50.63,11.94,77.92,11.51,77.49-1.39,140.8-69.81,140.8-147.3v-236.41s0-95.93,191.85-95.93c61.4,0,121.62,12.15,177.26,35.28,55.74,23.02,106.9,57.02,150.28,100.4l56.18,56.18c96.55,96.55,257.83,82.35,334.39-30.72,31.13-45.98,49.32-101.44,49.32-161.14v-383.71c0-105.96-85.9-191.86-191.86-191.86ZM3101.46-1531.76c24.22,0,43.86,19.63,43.86,43.86s-19.64,43.85-43.86,43.85-43.86-19.63-43.86-43.85,19.64-43.86,43.86-43.86Z"/>
      <path d="M3729.1-165c-29.04-19.36-66.88-19.36-95.93,0v-146.82h-175.7l79.77,210.77h287.79l-95.93-63.95Z"/>
      <path d="M3070.23-101.05h287.79l-95.93-63.95c-29.04-19.36-66.88-19.36-95.93,0v-127.9c191.86,0,161.71-191.86,161.71-191.86l-353.57-39.15,95.93,422.86Z"/>
    </g>
  </g>
  <g>
    <polygon class="st0" points="5405.39 -1731.83 5315.75 -1866.34 5213.53 -2019.61 5117.6 -2019.61 5203.62 -1761.46 5213.53 -1731.83 5244.97 -1731.83 5405.39 -1731.83"/>
    <g>
      <path class="st0" d="M5693.17-1252.19h-671.5c-105.94,0-191.85-85.91-191.85-191.86h191.85c52.98,0,95.93,42.96,95.93,95.93h671.5v-287.78c0-26.44-10.77-50.52-28.14-67.79-17.27-17.37-41.35-28.14-67.79-28.14,0,62.78-30.16,118.52-76.74,153.48-32.08,24.09-71.95,38.38-115.11,38.38-38.38,0-86.77-11.3-132.81-30.81-81.12-34.11-154.98-93.47-154.98-161.05h-95.93l-58.3-87.4-133.55-200.38h-95.93l66.3,198.78,29.63,89h-549.4c-19.01,0-28.53,22.98-15.08,36.42l180.76,151.7v147.63c0,238.41,193.27,431.67,431.68,431.67h623.53c0,22.6-4.58,43.49-12.68,62.14-19.65,44.72-59.55,76.58-105.32,87.79-18.81,4.6-38.53,3.77-57.03-1.94l-11.49-3.54c-26.52-8.17-48.19-17.74-77.55-27.47-26.56-8.81-99.17-19.66-127.55-19.66l-88.02-1.39s-287.78,0-287.78,287.79v232.68c0,22.49-13,43.7-34,51.58-18.98,7.15-38.37,2.78-52.12-8.42-9.17-7.46-15.78-18.12-18.34-30.37l-86.86-434.45c-.11-.85-.22-1.6-.43-2.35v-.1c0-.11,0-.32-.11-.43-9.48-47.11-32.72-89.11-65.44-121.83-43.38-43.38-103.39-70.24-169.58-70.24h-47.97l143.9,239.82h-143.9l188.88,317.63,61.92,104.14c24.09,40.5,59.27,73.33,101.26,94.54,24.41,7.89,50.63,11.94,77.92,11.51,77.49-1.39,140.8-69.81,140.8-147.3v-236.41s0-95.93,191.85-95.93c61.4,0,121.62,12.15,177.26,35.28,55.74,23.02,106.9,57.02,150.28,100.4l56.18,56.18c96.55,96.55,257.83,82.35,334.39-30.72,31.13-45.98,49.32-101.44,49.32-161.14v-383.71c0-105.96-85.9-191.86-191.86-191.86ZM5161.46-1531.76c24.22,0,43.86,19.63,43.86,43.86s-19.64,43.85-43.86,43.85-43.86-19.63-43.86-43.85,19.64-43.86,43.86-43.86Z"/>
      <path class="st0" d="M5789.1-165c-29.04-19.36-66.88-19.36-95.93,0v-146.82h-175.7l79.77,210.77h287.79l-95.93-63.95Z"/>
      <path class="st0" d="M5130.23-101.05h287.79l-95.93-63.95c-29.04-19.36-66.88-19.36-95.93,0v-127.9c191.86,0,161.71-191.86,161.71-191.86l-353.57-39.15,95.93,422.86Z"/>
      <polygon class="st0" points="5554.35 -1632.49 5580.72 -1703.76 5651.98 -1730.13 5580.72 -1756.5 5554.35 -1827.76 5527.98 -1756.5 5456.72 -1730.13 5527.98 -1703.76 5554.35 -1632.49"/>
    </g>
  </g>
  <g>
    <g>
      <path class="st1" d="M1117.24,1098.68l-16.49-3.76c-13.77-3.13-21.91-5.84-21.91-13.56,0-5.01,5.22-7.51,12.52-7.51,15.03,0,32.97,8.14,44.03,19.82l23.16-29.84c-13.98-13.77-35.47-23.37-62.81-23.37-31.09,0-55.5,15.03-55.5,43.4,0,26.51,20.03,37.15,44.03,41.74l13.98,2.71c18.57,3.55,25.66,7.09,25.66,14.19,0,5.84-6.05,8.14-15.65,8.14-16.27,0-35.47-7.31-47.15-21.49l-23.37,30.25c15.85,16.69,41.31,24.62,68.44,24.62,32.13,0,56.34-14.19,56.34-42.56,0-23.17-14.82-35.89-45.28-42.78Z"/>
      <path class="st1" d="M1225.33,1042.13l-12.73,25.67h28.59l25.66-25.67h-41.52ZM1273.32,1153.35c-3.76,0-5.01-1.46-5.01-6.05v-31.09c0-26.5-16.27-39.44-42.77-39.44-21.5,0-39.65,8.35-52.59,20.03l16.7,27.55c8.55-9.6,21.91-16.07,33.8-16.07,8.35,0,11.48,2.5,12.52,8.34l-27.75,8.56c-22.96,7.09-32.35,16.28-32.35,32.97,0,18.57,11.9,26.08,26.92,26.08,21.08,0,29.01-16.48,32.14-29.84v7.93c0,14.61,11.47,19.62,23.16,19.62h21.28v-28.59h-6.05ZM1234.93,1142.71c0,10.64-5.43,15.44-17.74,15.44-5.43,0-7.93-1.88-7.93-5.22,0-2.71,1.67-4.8,8.76-7.3l16.91-6.05v3.13Z"/>
      <path class="st1" d="M1366.59,1076.77c-21.07,0-30.88,19.2-34.01,36.93v-34.84h-37.56v103.08h37.56v-51.96c0-16.69,7.93-24.83,16.49-24.83,6.05,0,8.55,3.96,8.55,9.81,0,6.26-4.17,14.19-7.93,18.57h34.43c2.92-5.22,7.1-15.86,7.1-28.38,0-17.11-6.68-28.38-24.63-28.38Z"/>
      <path class="st1" d="M1521.01,1078.86h-43.41l-13.98,15.86-21.28,27.96,2.09-35.27v-45.28h-37.56v139.81h37.56v-24.63l12.72-14.18,21.08,38.81h41.94l-38.39-61.35,39.23-41.73Z"/>
      <path class="st1" d="M1577.14,1042.13l-12.73,25.67h28.59l25.66-25.67h-41.52ZM1625.13,1153.35c-3.76,0-5.01-1.46-5.01-6.05v-31.09c0-26.5-16.27-39.44-42.77-39.44-21.5,0-39.65,8.35-52.59,20.03l16.7,27.55c8.55-9.6,21.91-16.07,33.8-16.07,8.35,0,11.48,2.5,12.52,8.34l-27.75,8.56c-22.96,7.09-32.35,16.28-32.35,32.97,0,18.57,11.9,26.08,26.92,26.08,21.08,0,29.01-16.48,32.14-29.84v7.93c0,14.61,11.47,19.62,23.16,19.62h21.28v-28.59h-6.05ZM1586.74,1142.71c0,10.64-5.43,15.44-17.74,15.44-5.43,0-7.93-1.88-7.93-5.22,0-2.71,1.67-4.8,8.76-7.3l16.91-6.05v3.13Z"/>
      <path class="st1" d="M1718.2,1076.77c-21.5,0-30.89,15.65-33.81,32.76v-30.67h-37.56v103.08h37.56v-56.13c0-16.7,2.72-20.66,13.56-20.66s13.57,6.68,13.57,19.2v57.59h37.56v-72.2c0-21.08-11.69-32.97-30.88-32.97Z"/>
      <path class="st1" d="M1839.64,1078.86l-10.02,36.93-8.14,42.78-7.92-42.78-9.81-36.93h-42.15l32.97,95.98h22.32l-1.87,5.01c-3.13,7.93-7.1,10.02-14.61,10.02-8.76,0-17.74-4.8-25.46-11.9l-12.93,32.76c8.55,6.26,23.78,12.1,39.64,12.1,22.95,0,36.52-10.43,45.07-35.89l35.89-108.08h-42.98Z"/>
      <path class="st1" d="M1138.1,1229.3l-19.19,67.81-10.23,50.08-10.22-50.08-19.41-67.81h-44.86l47.99,139.8h51.54l47.99-139.8h-43.61Z"/>
      <path class="st1" d="M1240.56,1229.3v25.66h30.25v-25.66h-30.25ZM1200.91,1229.3v25.66h30.26v-25.66h-30.26ZM1235.13,1263.94c-32.97,0-53.62,22.95-53.62,53.62s20.65,53.63,53.62,53.63c34.64,0,55.3-22.95,55.3-53.63s-20.66-53.62-55.3-53.62ZM1235.97,1341.14c-9.6,0-16.28-5.63-16.28-23.58s6.68-23.58,16.28-23.58,16.27,5.64,16.27,23.58-6.67,23.58-16.27,23.58Z"/>
      <path class="st1" d="M1309.21,1229.3v139.8h37.56v-139.8h-37.56Z"/>
      <path class="st1" d="M1439.83,1347.82h-39.64c-6.89,0-9.18-2.72-9.18-7.1,0-2.08.62-3.96,1.46-5.63,7.3,3.34,16.06,5.22,26.08,5.22,28.8,0,47.99-15.45,47.99-38.19,0-13.15-6.26-23.79-17.11-30.46l20.24-20.45-31.3-10.44-3.75,25.04c-5.01-1.25-10.23-1.87-16.07-1.87-28.8,0-47.99,15.44-47.99,38.18,0,12.94,6.26,23.58,17.11,30.26-9.81,4.17-20.45,12.93-20.45,24.41,0,10.64,8.76,15.02,19.2,16.69-15.65.21-27.13,5.01-27.13,15.24,0,11.47,16.27,21.28,51.96,21.28,45.07,0,63.64-17.32,63.64-36.73,0-14.81-9.39-25.45-35.06-25.45ZM1418.55,1287.72c7.51,0,13.35,4.38,13.35,14.4s-5.84,14.4-13.35,14.4-13.36-4.38-13.36-14.4,5.85-14.4,13.36-14.4ZM1415.42,1384.75c-19.82,0-26.29-3.13-26.29-8.76,0-1.05.21-1.88.42-2.51h44.44c6.26,0,9.39.84,9.39,4.18,0,4.59-8.76,7.09-27.96,7.09Z"/>
      <path class="st1" d="M1558.15,1266.02l-10.02,36.94-8.14,42.77-7.93-42.77-9.8-36.94h-42.15l32.97,95.99h22.32l-1.88,5.01c-3.13,7.92-7.09,10.01-14.6,10.01-8.77,0-17.74-4.8-25.46-11.89l-12.94,32.76c8.56,6.26,23.79,12.1,39.65,12.1,22.95,0,36.52-10.43,45.07-35.89l35.89-108.09h-42.98Z"/>
      <path class="st1" d="M1145.82,1416.46l-13.77,40.69-12.31,48.41-12.31-48.41-13.77-40.69h-52.17v139.81h37.56v-36.31l-6.05-68.65,17.53,54.25,8.97,25.67h40.48l8.97-25.67,17.53-54.25-6.05,68.65v36.31h37.56v-139.81h-52.17Z"/>
      <path class="st1" d="M1318.39,1499.51c0-24.83-15.23-48.41-50.5-48.41-31.51,0-51.54,22.33-51.54,53.63s19.62,53.62,55.09,53.62c23.58,0,37.14-10.01,45.07-20.24l-22.74-21.7c-3.97,8.97-11.48,11.9-21.71,11.9s-18.57-3.55-20.86-13.57h66.15c.62-2.5,1.04-10.22,1.04-15.23ZM1250.57,1495.34c.84-10.85,7.31-16.28,17.53-16.28,11.27,0,16.07,5.84,16.69,16.28h-34.22Z"/>
      <path class="st1" d="M1394.55,1494.5l-10.64-3.13c-13.35-3.96-16.27-5.42-16.27-8.55,0-2.51,2.5-4.18,7.72-4.18,10.22,0,24.83,4.18,38.18,13.98l12.73-26.7c-8.14-6.06-24.62-14.61-47.37-14.61-27.33,0-45.07,12.31-45.07,33.59,0,17.32,11.69,25.04,32.76,30.68l14.19,3.75c10.44,2.72,13.98,4.18,13.98,7.31,0,2.92-2.71,4.17-8.34,4.17-12.32,0-30.05-7.1-41.95-15.23l-13.98,27.12c10.23,7.93,31.09,15.65,54.88,15.65,26.5,0,42.78-12.93,42.78-32.34,0-16.69-11.27-25.04-33.6-31.51Z"/>
      <path class="st1" d="M1542.08,1499.51c0-24.83-15.23-48.41-50.5-48.41-31.51,0-51.54,22.33-51.54,53.63s19.62,53.62,55.09,53.62c23.58,0,37.14-10.01,45.07-20.24l-22.74-21.7c-3.97,8.97-11.48,11.9-21.71,11.9s-18.57-3.55-20.86-13.57h66.14c.63-2.5,1.05-10.22,1.05-15.23ZM1474.26,1495.34c.84-10.85,7.3-16.28,17.53-16.28,11.27,0,16.07,5.84,16.69,16.28h-34.22Z"/>
      <path class="st1" d="M1147.49,1637.01v-33.38h-106v139.8h37.56v-48.62h58.01v-33.38h-58.01v-24.42h68.44Z"/>
      <path class="st1" d="M1256.42,1686.67c0-24.83-15.24-48.41-50.5-48.41-31.51,0-51.54,22.33-51.54,53.63s19.61,53.63,55.09,53.63c23.58,0,37.14-10.02,45.07-20.24l-22.75-21.7c-3.96,8.97-11.47,11.89-21.7,11.89s-18.57-3.55-20.86-13.56h66.14c.63-2.51,1.05-10.23,1.05-15.24ZM1188.6,1682.5c.83-10.85,7.3-16.27,17.53-16.27,11.27,0,16.06,5.84,16.69,16.27h-34.22Z"/>
      <path class="st1" d="M1332.58,1681.67l-10.64-3.13c-13.36-3.97-16.28-5.43-16.28-8.56,0-2.5,2.51-4.17,7.72-4.17,10.23,0,24.83,4.17,38.19,13.98l12.73-26.71c-8.14-6.05-24.63-14.61-47.37-14.61-27.33,0-45.07,12.32-45.07,33.6,0,17.32,11.68,25.04,32.76,30.67l14.19,3.76c10.43,2.71,13.98,4.17,13.98,7.3,0,2.92-2.71,4.17-8.35,4.17-12.31,0-30.05-7.09-41.94-15.23l-13.98,27.13c10.22,7.93,31.09,15.65,54.88,15.65,26.5,0,42.78-12.94,42.78-32.34,0-16.7-11.27-25.04-33.6-31.51Z"/>
      <path class="st1" d="M1456.32,1714.01l-38.19,1.67,31.93-26.92,24.41-22.12v-26.29h-93.9v29.42h13.36l37.76-1.87-30.04,24.83-23.17,24.41v26.29h98.08v-29.42h-20.24Z"/>
      <path class="st1" d="M1559.61,1704.41c-3.34,5.22-8.77,8.56-13.36,8.56s-7.51-2.72-7.51-8.14v-36.1h25.04v-28.38h-25.04v-28.38l-37.56,16.7v11.68h-14.61v28.38h14.61v41.52c0,20.04,9.81,35.27,36.52,35.27,16.69,0,27.75-7.93,32.13-12.94l-10.22-28.17Z"/>
      <path class="st1" d="M1586.52,1640.35v103.08h37.56v-103.08h-37.56ZM1586.52,1603.63v27.33h37.56v-27.33h-37.56Z"/>
      <path class="st1" d="M1716.73,1640.35l-10.22,41.53-7.31,41.94-7.51-41.94-10.22-41.53h-41.74l35.48,103.08h47.36l35.48-103.08h-41.32Z"/>
      <path class="st1" d="M1816.06,1603.63l-12.73,25.66h28.59l25.66-25.66h-41.52ZM1864.05,1714.84c-3.76,0-5.01-1.46-5.01-6.05v-31.09c0-26.5-16.27-39.44-42.77-39.44-21.5,0-39.65,8.35-52.59,20.04l16.7,27.54c8.55-9.6,21.9-16.07,33.8-16.07,8.35,0,11.48,2.51,12.52,8.35l-27.75,8.55c-22.96,7.1-32.35,16.28-32.35,32.97,0,18.57,11.9,26.09,26.92,26.09,21.08,0,29.01-16.49,32.14-29.84v7.93c0,14.6,11.47,19.61,23.16,19.61h21.28v-28.59h-6.05ZM1825.66,1704.2c0,10.64-5.43,15.44-17.74,15.44-5.43,0-7.93-1.87-7.93-5.21,0-2.72,1.67-4.8,8.76-7.31l16.91-6.05v3.13Z"/>
      <path class="st1" d="M1885.75,1603.63v139.8h37.56v-139.8h-37.56Z"/>
    </g>
    <g>
      <path class="st1" d="M783.6,1308.65h-354.72c-55.97,0-101.35-45.38-101.35-101.35h101.35c27.98,0,50.67,22.69,50.67,50.68h354.73v-152.03c0-13.96-5.69-26.69-14.87-35.81-9.12-9.18-21.84-14.86-35.81-14.86,0,33.16-15.93,62.61-40.54,81.08-16.94,12.72-38,20.27-60.81,20.27-20.27,0-45.83-5.97-70.15-16.28-42.85-18.01-81.87-49.38-81.87-85.07h-50.68l-30.8-46.17-70.55-105.86h-50.67l35.02,105.01,15.65,47.02H87.98c-10.04,0-15.07,12.14-7.97,19.24l95.5,80.13v77.99c0,125.94,102.09,228.03,228.03,228.03h329.39c0,11.94-2.42,22.98-6.7,32.83-10.38,23.62-31.46,40.45-55.64,46.37-9.93,2.43-20.35,1.99-30.13-1.02l-6.06-1.87c-14.01-4.32-25.46-9.37-40.97-14.51-14.03-4.65-52.39-10.39-67.38-10.39l-46.5-.73s-152.02,0-152.02,152.02v122.92c0,11.88-6.87,23.08-17.96,27.25-10.02,3.77-20.27,1.46-27.54-4.45-4.84-3.94-8.33-9.57-9.68-16.04l-45.89-229.51c-.05-.45-.11-.84-.22-1.23v-.06c0-.06,0-.17-.06-.23-5.01-24.88-17.29-47.07-34.57-64.35-22.92-22.92-54.62-37.11-89.58-37.11h-25.34l76.01,126.69h-76.01l99.77,167.79,32.72,55.01c12.72,21.4,31.3,38.74,53.49,49.94,12.89,4.17,26.74,6.31,41.16,6.08,40.93-.73,74.37-36.88,74.37-77.81v-124.89s0-50.67,101.35-50.67c32.44,0,64.25,6.42,93.64,18.64,29.45,12.16,56.47,30.12,79.39,53.04l29.67,29.67,50.68,50.67c83.95,0,152.02-68.07,152.02-152.02v-202.7c0-55.97-45.37-101.35-101.35-101.35ZM502.72,1160.96c12.8,0,23.17,10.38,23.17,23.17s-10.37,23.17-23.17,23.17-23.17-10.37-23.17-23.17,10.38-23.17,23.17-23.17Z"/>
      <path class="st1" d="M884.95,1882.97c-15.34-10.23-35.33-10.23-50.67,0v-77.56h-92.81l42.14,111.34h152.02l-50.68-33.78Z"/>
      <path class="st1" d="M530.23,1916.75h152.02l-50.68-33.78c-15.34-10.23-35.33-10.23-50.67,0v-67.57c101.35,0,101.35-101.35,101.35-101.35h-202.7l50.67,202.7Z"/>
      <polygon class="st1" points="631.58 1055.28 584.23 984.22 530.23 903.25 479.55 903.25 524.99 1039.62 530.23 1055.28 546.84 1055.28 631.58 1055.28"/>
      <polygon class="st1" points="710.27 1107.75 724.2 1070.11 761.85 1056.18 724.2 1042.25 710.27 1004.6 696.34 1042.25 658.7 1056.18 696.34 1070.11 710.27 1107.75"/>
    </g>
  </g>
  <g>
    <g>
      <path d="M3177.24,1098.68l-16.49-3.76c-13.77-3.13-21.91-5.84-21.91-13.56,0-5.01,5.22-7.51,12.52-7.51,15.03,0,32.97,8.14,44.03,19.82l23.16-29.84c-13.98-13.77-35.47-23.37-62.81-23.37-31.09,0-55.5,15.03-55.5,43.4,0,26.51,20.03,37.15,44.03,41.74l13.98,2.71c18.57,3.55,25.66,7.09,25.66,14.19,0,5.84-6.05,8.14-15.65,8.14-16.27,0-35.47-7.31-47.15-21.49l-23.37,30.25c15.85,16.69,41.31,24.62,68.44,24.62,32.13,0,56.34-14.19,56.34-42.56,0-23.17-14.82-35.89-45.28-42.78Z"/>
      <path d="M3285.33,1042.13l-12.73,25.67h28.59l25.66-25.67h-41.52ZM3333.32,1153.35c-3.76,0-5.01-1.46-5.01-6.05v-31.09c0-26.5-16.27-39.44-42.77-39.44-21.5,0-39.65,8.35-52.59,20.03l16.7,27.55c8.55-9.6,21.91-16.07,33.8-16.07,8.35,0,11.48,2.5,12.52,8.34l-27.75,8.56c-22.96,7.09-32.35,16.28-32.35,32.97,0,18.57,11.9,26.08,26.92,26.08,21.08,0,29.01-16.48,32.14-29.84v7.93c0,14.61,11.47,19.62,23.16,19.62h21.28v-28.59h-6.05ZM3294.93,1142.71c0,10.64-5.43,15.44-17.74,15.44-5.43,0-7.93-1.88-7.93-5.22,0-2.71,1.67-4.8,8.76-7.3l16.91-6.05v3.13Z"/>
      <path d="M3426.59,1076.77c-21.07,0-30.88,19.2-34.01,36.93v-34.84h-37.56v103.08h37.56v-51.96c0-16.69,7.93-24.83,16.49-24.83,6.05,0,8.55,3.96,8.55,9.81,0,6.26-4.17,14.19-7.93,18.57h34.43c2.92-5.22,7.1-15.86,7.1-28.38,0-17.11-6.68-28.38-24.63-28.38Z"/>
      <path d="M3581.01,1078.86h-43.41l-13.98,15.86-21.28,27.96,2.09-35.27v-45.28h-37.56v139.81h37.56v-24.63l12.72-14.18,21.08,38.81h41.94l-38.39-61.35,39.23-41.73Z"/>
      <path d="M3637.14,1042.13l-12.73,25.67h28.59l25.66-25.67h-41.52ZM3685.13,1153.35c-3.76,0-5.01-1.46-5.01-6.05v-31.09c0-26.5-16.27-39.44-42.77-39.44-21.5,0-39.65,8.35-52.59,20.03l16.7,27.55c8.55-9.6,21.91-16.07,33.8-16.07,8.35,0,11.48,2.5,12.52,8.34l-27.75,8.56c-22.96,7.09-32.35,16.28-32.35,32.97,0,18.57,11.9,26.08,26.92,26.08,21.08,0,29.01-16.48,32.14-29.84v7.93c0,14.61,11.47,19.62,23.16,19.62h21.28v-28.59h-6.05ZM3646.74,1142.71c0,10.64-5.43,15.44-17.74,15.44-5.43,0-7.93-1.88-7.93-5.22,0-2.71,1.67-4.8,8.76-7.3l16.91-6.05v3.13Z"/>
      <path d="M3778.2,1076.77c-21.5,0-30.89,15.65-33.81,32.76v-30.67h-37.56v103.08h37.56v-56.13c0-16.7,2.72-20.66,13.56-20.66s13.57,6.68,13.57,19.2v57.59h37.56v-72.2c0-21.08-11.69-32.97-30.88-32.97Z"/>
      <path d="M3899.64,1078.86l-10.02,36.93-8.14,42.78-7.92-42.78-9.81-36.93h-42.15l32.97,95.98h22.32l-1.87,5.01c-3.13,7.93-7.1,10.02-14.61,10.02-8.76,0-17.74-4.8-25.46-11.9l-12.93,32.76c8.55,6.26,23.78,12.1,39.64,12.1,22.95,0,36.52-10.43,45.07-35.89l35.89-108.08h-42.98Z"/>
      <path d="M3198.1,1229.3l-19.19,67.81-10.23,50.08-10.22-50.08-19.41-67.81h-44.86l47.99,139.8h51.54l47.99-139.8h-43.61Z"/>
      <path d="M3300.56,1229.3v25.66h30.25v-25.66h-30.25ZM3260.91,1229.3v25.66h30.26v-25.66h-30.26ZM3295.13,1263.94c-32.97,0-53.62,22.95-53.62,53.62s20.65,53.63,53.62,53.63c34.64,0,55.3-22.95,55.3-53.63s-20.66-53.62-55.3-53.62ZM3295.97,1341.14c-9.6,0-16.28-5.63-16.28-23.58s6.68-23.58,16.28-23.58,16.27,5.64,16.27,23.58-6.67,23.58-16.27,23.58Z"/>
      <path d="M3369.21,1229.3v139.8h37.56v-139.8h-37.56Z"/>
      <path d="M3499.83,1347.82h-39.64c-6.89,0-9.18-2.72-9.18-7.1,0-2.08.62-3.96,1.46-5.63,7.3,3.34,16.06,5.22,26.08,5.22,28.8,0,47.99-15.45,47.99-38.19,0-13.15-6.26-23.79-17.11-30.46l20.24-20.45-31.3-10.44-3.75,25.04c-5.01-1.25-10.23-1.87-16.07-1.87-28.8,0-47.99,15.44-47.99,38.18,0,12.94,6.26,23.58,17.11,30.26-9.81,4.17-20.45,12.93-20.45,24.41,0,10.64,8.76,15.02,19.2,16.69-15.65.21-27.13,5.01-27.13,15.24,0,11.47,16.27,21.28,51.96,21.28,45.07,0,63.64-17.32,63.64-36.73,0-14.81-9.39-25.45-35.06-25.45ZM3478.55,1287.72c7.51,0,13.35,4.38,13.35,14.4s-5.84,14.4-13.35,14.4-13.36-4.38-13.36-14.4,5.85-14.4,13.36-14.4ZM3475.42,1384.75c-19.82,0-26.29-3.13-26.29-8.76,0-1.05.21-1.88.42-2.51h44.44c6.26,0,9.39.84,9.39,4.18,0,4.59-8.76,7.09-27.96,7.09Z"/>
      <path d="M3618.15,1266.02l-10.02,36.94-8.14,42.77-7.93-42.77-9.8-36.94h-42.15l32.97,95.99h22.32l-1.88,5.01c-3.13,7.92-7.09,10.01-14.6,10.01-8.77,0-17.74-4.8-25.46-11.89l-12.94,32.76c8.56,6.26,23.79,12.1,39.65,12.1,22.95,0,36.52-10.43,45.07-35.89l35.89-108.09h-42.98Z"/>
      <path d="M3205.82,1416.46l-13.77,40.69-12.31,48.41-12.31-48.41-13.77-40.69h-52.17v139.81h37.56v-36.31l-6.05-68.65,17.53,54.25,8.97,25.67h40.48l8.97-25.67,17.53-54.25-6.05,68.65v36.31h37.56v-139.81h-52.17Z"/>
      <path d="M3378.39,1499.51c0-24.83-15.23-48.41-50.5-48.41-31.51,0-51.54,22.33-51.54,53.63s19.62,53.62,55.09,53.62c23.58,0,37.14-10.01,45.07-20.24l-22.74-21.7c-3.97,8.97-11.48,11.9-21.71,11.9s-18.57-3.55-20.86-13.57h66.15c.62-2.5,1.04-10.22,1.04-15.23ZM3310.57,1495.34c.84-10.85,7.31-16.28,17.53-16.28,11.27,0,16.07,5.84,16.69,16.28h-34.22Z"/>
      <path d="M3454.55,1494.5l-10.64-3.13c-13.35-3.96-16.27-5.42-16.27-8.55,0-2.51,2.5-4.18,7.72-4.18,10.22,0,24.83,4.18,38.18,13.98l12.73-26.7c-8.14-6.06-24.62-14.61-47.37-14.61-27.33,0-45.07,12.31-45.07,33.59,0,17.32,11.69,25.04,32.76,30.68l14.19,3.75c10.44,2.72,13.98,4.18,13.98,7.31,0,2.92-2.71,4.17-8.34,4.17-12.32,0-30.05-7.1-41.95-15.23l-13.98,27.12c10.23,7.93,31.09,15.65,54.88,15.65,26.5,0,42.78-12.93,42.78-32.34,0-16.69-11.27-25.04-33.6-31.51Z"/>
      <path d="M3602.08,1499.51c0-24.83-15.23-48.41-50.5-48.41-31.51,0-51.54,22.33-51.54,53.63s19.62,53.62,55.09,53.62c23.58,0,37.14-10.01,45.07-20.24l-22.74-21.7c-3.97,8.97-11.48,11.9-21.71,11.9s-18.57-3.55-20.86-13.57h66.14c.63-2.5,1.05-10.22,1.05-15.23ZM3534.26,1495.34c.84-10.85,7.3-16.28,17.53-16.28,11.27,0,16.07,5.84,16.69,16.28h-34.22Z"/>
      <path d="M3207.49,1637.01v-33.38h-106v139.8h37.56v-48.62h58.01v-33.38h-58.01v-24.42h68.44Z"/>
      <path d="M3316.42,1686.67c0-24.83-15.24-48.41-50.5-48.41-31.51,0-51.54,22.33-51.54,53.63s19.61,53.63,55.09,53.63c23.58,0,37.14-10.02,45.07-20.24l-22.75-21.7c-3.96,8.97-11.47,11.89-21.7,11.89s-18.57-3.55-20.86-13.56h66.14c.63-2.51,1.05-10.23,1.05-15.24ZM3248.6,1682.5c.83-10.85,7.3-16.27,17.53-16.27,11.27,0,16.06,5.84,16.69,16.27h-34.22Z"/>
      <path d="M3392.58,1681.67l-10.64-3.13c-13.36-3.97-16.28-5.43-16.28-8.56,0-2.5,2.51-4.17,7.72-4.17,10.23,0,24.83,4.17,38.19,13.98l12.73-26.71c-8.14-6.05-24.63-14.61-47.37-14.61-27.33,0-45.07,12.32-45.07,33.6,0,17.32,11.68,25.04,32.76,30.67l14.19,3.76c10.43,2.71,13.98,4.17,13.98,7.3,0,2.92-2.71,4.17-8.35,4.17-12.31,0-30.05-7.09-41.94-15.23l-13.98,27.13c10.22,7.93,31.09,15.65,54.88,15.65,26.5,0,42.78-12.94,42.78-32.34,0-16.7-11.27-25.04-33.6-31.51Z"/>
      <path d="M3516.32,1714.01l-38.19,1.67,31.93-26.92,24.41-22.12v-26.29h-93.9v29.42h13.36l37.76-1.87-30.04,24.83-23.17,24.41v26.29h98.08v-29.42h-20.24Z"/>
      <path d="M3619.61,1704.41c-3.34,5.22-8.77,8.56-13.36,8.56s-7.51-2.72-7.51-8.14v-36.1h25.04v-28.38h-25.04v-28.38l-37.56,16.7v11.68h-14.61v28.38h14.61v41.52c0,20.04,9.81,35.27,36.52,35.27,16.69,0,27.75-7.93,32.13-12.94l-10.22-28.17Z"/>
      <path d="M3646.52,1640.35v103.08h37.56v-103.08h-37.56ZM3646.52,1603.63v27.33h37.56v-27.33h-37.56Z"/>
      <path d="M3776.73,1640.35l-10.22,41.53-7.31,41.94-7.51-41.94-10.22-41.53h-41.74l35.48,103.08h47.36l35.48-103.08h-41.32Z"/>
      <path d="M3876.06,1603.63l-12.73,25.66h28.59l25.66-25.66h-41.52ZM3924.05,1714.84c-3.76,0-5.01-1.46-5.01-6.05v-31.09c0-26.5-16.27-39.44-42.77-39.44-21.5,0-39.65,8.35-52.59,20.04l16.7,27.54c8.55-9.6,21.9-16.07,33.8-16.07,8.35,0,11.48,2.51,12.52,8.35l-27.75,8.55c-22.96,7.1-32.35,16.28-32.35,32.97,0,18.57,11.9,26.09,26.92,26.09,21.08,0,29.01-16.49,32.14-29.84v7.93c0,14.6,11.47,19.61,23.16,19.61h21.28v-28.59h-6.05ZM3885.66,1704.2c0,10.64-5.43,15.44-17.74,15.44-5.43,0-7.93-1.87-7.93-5.21,0-2.72,1.67-4.8,8.76-7.31l16.91-6.05v3.13Z"/>
      <path d="M3945.75,1603.63v139.8h37.56v-139.8h-37.56Z"/>
    </g>
    <g>
      <path d="M2843.6,1308.65h-354.72c-55.97,0-101.35-45.38-101.35-101.35h101.35c27.98,0,50.67,22.69,50.67,50.68h354.73v-152.03c0-13.96-5.69-26.69-14.87-35.81-9.12-9.18-21.84-14.86-35.81-14.86,0,33.16-15.93,62.61-40.54,81.08-16.94,12.72-38,20.27-60.81,20.27-20.27,0-45.83-5.97-70.15-16.28-42.85-18.01-81.87-49.38-81.87-85.07h-50.68l-30.8-46.17-70.55-105.86h-50.67l35.02,105.01,15.65,47.02h-290.22c-10.04,0-15.07,12.14-7.97,19.24l95.5,80.13v77.99c0,125.94,102.09,228.03,228.03,228.03h329.39c0,11.94-2.42,22.98-6.7,32.83-10.38,23.62-31.46,40.45-55.64,46.37-9.93,2.43-20.35,1.99-30.13-1.02l-6.06-1.87c-14.01-4.32-25.46-9.37-40.97-14.51-14.03-4.65-52.39-10.39-67.38-10.39l-46.5-.73s-152.02,0-152.02,152.02v122.92c0,11.88-6.87,23.08-17.96,27.25-10.02,3.77-20.27,1.46-27.54-4.45-4.84-3.94-8.33-9.57-9.68-16.04l-45.89-229.51c-.05-.45-.11-.84-.22-1.23v-.06c0-.06,0-.17-.06-.23-5.01-24.88-17.29-47.07-34.57-64.35-22.92-22.92-54.62-37.11-89.58-37.11h-25.34l76.01,126.69h-76.01l99.77,167.79,32.72,55.01c12.72,21.4,31.3,38.74,53.49,49.94,12.89,4.17,26.74,6.31,41.16,6.08,40.93-.73,74.37-36.88,74.37-77.81v-124.89s0-50.67,101.35-50.67c32.44,0,64.25,6.42,93.64,18.64,29.45,12.16,56.47,30.12,79.39,53.04l29.67,29.67,50.68,50.67c83.95,0,152.02-68.07,152.02-152.02v-202.7c0-55.97-45.37-101.35-101.35-101.35ZM2562.72,1160.96c12.8,0,23.17,10.38,23.17,23.17s-10.37,23.17-23.17,23.17-23.17-10.37-23.17-23.17,10.38-23.17,23.17-23.17Z"/>
      <path d="M2944.95,1882.97c-15.34-10.23-35.33-10.23-50.67,0v-77.56h-92.81l42.14,111.34h152.02l-50.68-33.78Z"/>
      <path d="M2590.23,1916.75h152.02l-50.68-33.78c-15.34-10.23-35.33-10.23-50.67,0v-67.57c101.35,0,101.35-101.35,101.35-101.35h-202.7l50.67,202.7Z"/>
      <polygon points="2691.58 1055.28 2644.23 984.22 2590.23 903.25 2539.55 903.25 2584.99 1039.62 2590.23 1055.28 2606.84 1055.28 2691.58 1055.28"/>
      <polygon points="2770.27 1107.75 2784.2 1070.11 2821.85 1056.18 2784.2 1042.25 2770.27 1004.6 2756.34 1042.25 2718.7 1056.18 2756.34 1070.11 2770.27 1107.75"/>
    </g>
  </g>
  <g>
    <g>
      <path class="st0" d="M5237.24,1098.68l-16.49-3.76c-13.77-3.13-21.91-5.84-21.91-13.56,0-5.01,5.22-7.51,12.52-7.51,15.03,0,32.97,8.14,44.03,19.82l23.16-29.84c-13.98-13.77-35.47-23.37-62.81-23.37-31.09,0-55.5,15.03-55.5,43.4,0,26.51,20.03,37.15,44.03,41.74l13.98,2.71c18.57,3.55,25.66,7.09,25.66,14.19,0,5.84-6.05,8.14-15.65,8.14-16.27,0-35.47-7.31-47.15-21.49l-23.37,30.25c15.85,16.69,41.31,24.62,68.44,24.62,32.13,0,56.34-14.19,56.34-42.56,0-23.17-14.82-35.89-45.28-42.78Z"/>
      <path class="st0" d="M5345.33,1042.13l-12.73,25.67h28.59l25.66-25.67h-41.52ZM5393.32,1153.35c-3.76,0-5.01-1.46-5.01-6.05v-31.09c0-26.5-16.27-39.44-42.77-39.44-21.5,0-39.65,8.35-52.59,20.03l16.7,27.55c8.55-9.6,21.91-16.07,33.8-16.07,8.35,0,11.48,2.5,12.52,8.34l-27.75,8.56c-22.96,7.09-32.35,16.28-32.35,32.97,0,18.57,11.9,26.08,26.92,26.08,21.08,0,29.01-16.48,32.14-29.84v7.93c0,14.61,11.47,19.62,23.16,19.62h21.28v-28.59h-6.05ZM5354.93,1142.71c0,10.64-5.43,15.44-17.74,15.44-5.43,0-7.93-1.88-7.93-5.22,0-2.71,1.67-4.8,8.76-7.3l16.91-6.05v3.13Z"/>
      <path class="st0" d="M5486.59,1076.77c-21.07,0-30.88,19.2-34.01,36.93v-34.84h-37.56v103.08h37.56v-51.96c0-16.69,7.93-24.83,16.49-24.83,6.05,0,8.55,3.96,8.55,9.81,0,6.26-4.17,14.19-7.93,18.57h34.43c2.92-5.22,7.1-15.86,7.1-28.38,0-17.11-6.68-28.38-24.63-28.38Z"/>
      <path class="st0" d="M5641.01,1078.86h-43.41l-13.98,15.86-21.28,27.96,2.09-35.27v-45.28h-37.56v139.81h37.56v-24.63l12.72-14.18,21.08,38.81h41.94l-38.39-61.35,39.23-41.73Z"/>
      <path class="st0" d="M5697.14,1042.13l-12.73,25.67h28.59l25.66-25.67h-41.52ZM5745.13,1153.35c-3.76,0-5.01-1.46-5.01-6.05v-31.09c0-26.5-16.27-39.44-42.77-39.44-21.5,0-39.65,8.35-52.59,20.03l16.7,27.55c8.55-9.6,21.91-16.07,33.8-16.07,8.35,0,11.48,2.5,12.52,8.34l-27.75,8.56c-22.96,7.09-32.35,16.28-32.35,32.97,0,18.57,11.9,26.08,26.92,26.08,21.08,0,29.01-16.48,32.14-29.84v7.93c0,14.61,11.47,19.62,23.16,19.62h21.28v-28.59h-6.05ZM5706.74,1142.71c0,10.64-5.43,15.44-17.74,15.44-5.43,0-7.93-1.88-7.93-5.22,0-2.71,1.67-4.8,8.76-7.3l16.91-6.05v3.13Z"/>
      <path class="st0" d="M5838.2,1076.77c-21.5,0-30.89,15.65-33.81,32.76v-30.67h-37.56v103.08h37.56v-56.13c0-16.7,2.72-20.66,13.56-20.66s13.57,6.68,13.57,19.2v57.59h37.56v-72.2c0-21.08-11.69-32.97-30.88-32.97Z"/>
      <path class="st0" d="M5959.64,1078.86l-10.02,36.93-8.14,42.78-7.92-42.78-9.81-36.93h-42.15l32.97,95.98h22.32l-1.87,5.01c-3.13,7.93-7.1,10.02-14.61,10.02-8.76,0-17.74-4.8-25.46-11.9l-12.93,32.76c8.55,6.26,23.78,12.1,39.64,12.1,22.95,0,36.52-10.43,45.07-35.89l35.89-108.08h-42.98Z"/>
      <path class="st0" d="M5258.1,1229.3l-19.19,67.81-10.23,50.08-10.22-50.08-19.41-67.81h-44.86l47.99,139.8h51.54l47.99-139.8h-43.61Z"/>
      <path class="st0" d="M5360.56,1229.3v25.66h30.25v-25.66h-30.25ZM5320.91,1229.3v25.66h30.26v-25.66h-30.26ZM5355.13,1263.94c-32.97,0-53.62,22.95-53.62,53.62s20.65,53.63,53.62,53.63c34.64,0,55.3-22.95,55.3-53.63s-20.66-53.62-55.3-53.62ZM5355.97,1341.14c-9.6,0-16.28-5.63-16.28-23.58s6.68-23.58,16.28-23.58,16.27,5.64,16.27,23.58-6.67,23.58-16.27,23.58Z"/>
      <path class="st0" d="M5429.21,1229.3v139.8h37.56v-139.8h-37.56Z"/>
      <path class="st0" d="M5559.83,1347.82h-39.64c-6.89,0-9.18-2.72-9.18-7.1,0-2.08.62-3.96,1.46-5.63,7.3,3.34,16.06,5.22,26.08,5.22,28.8,0,47.99-15.45,47.99-38.19,0-13.15-6.26-23.79-17.11-30.46l20.24-20.45-31.3-10.44-3.75,25.04c-5.01-1.25-10.23-1.87-16.07-1.87-28.8,0-47.99,15.44-47.99,38.18,0,12.94,6.26,23.58,17.11,30.26-9.81,4.17-20.45,12.93-20.45,24.41,0,10.64,8.76,15.02,19.2,16.69-15.65.21-27.13,5.01-27.13,15.24,0,11.47,16.27,21.28,51.96,21.28,45.07,0,63.64-17.32,63.64-36.73,0-14.81-9.39-25.45-35.06-25.45ZM5538.55,1287.72c7.51,0,13.35,4.38,13.35,14.4s-5.84,14.4-13.35,14.4-13.36-4.38-13.36-14.4,5.85-14.4,13.36-14.4ZM5535.42,1384.75c-19.82,0-26.29-3.13-26.29-8.76,0-1.05.21-1.88.42-2.51h44.44c6.26,0,9.39.84,9.39,4.18,0,4.59-8.76,7.09-27.96,7.09Z"/>
      <path class="st0" d="M5678.15,1266.02l-10.02,36.94-8.14,42.77-7.93-42.77-9.8-36.94h-42.15l32.97,95.99h22.32l-1.88,5.01c-3.13,7.92-7.09,10.01-14.6,10.01-8.77,0-17.74-4.8-25.46-11.89l-12.94,32.76c8.56,6.26,23.79,12.1,39.65,12.1,22.95,0,36.52-10.43,45.07-35.89l35.89-108.09h-42.98Z"/>
      <path class="st0" d="M5265.82,1416.46l-13.77,40.69-12.31,48.41-12.31-48.41-13.77-40.69h-52.17v139.81h37.56v-36.31l-6.05-68.65,17.53,54.25,8.97,25.67h40.48l8.97-25.67,17.53-54.25-6.05,68.65v36.31h37.56v-139.81h-52.17Z"/>
      <path class="st0" d="M5438.39,1499.51c0-24.83-15.23-48.41-50.5-48.41-31.51,0-51.54,22.33-51.54,53.63s19.62,53.62,55.09,53.62c23.58,0,37.14-10.01,45.07-20.24l-22.74-21.7c-3.97,8.97-11.48,11.9-21.71,11.9s-18.57-3.55-20.86-13.57h66.15c.62-2.5,1.04-10.22,1.04-15.23ZM5370.57,1495.34c.84-10.85,7.31-16.28,17.53-16.28,11.27,0,16.07,5.84,16.69,16.28h-34.22Z"/>
      <path class="st0" d="M5514.55,1494.5l-10.64-3.13c-13.35-3.96-16.27-5.42-16.27-8.55,0-2.51,2.5-4.18,7.72-4.18,10.22,0,24.83,4.18,38.18,13.98l12.73-26.7c-8.14-6.06-24.62-14.61-47.37-14.61-27.33,0-45.07,12.31-45.07,33.59,0,17.32,11.69,25.04,32.76,30.68l14.19,3.75c10.44,2.72,13.98,4.18,13.98,7.31,0,2.92-2.71,4.17-8.34,4.17-12.32,0-30.05-7.1-41.95-15.23l-13.98,27.12c10.23,7.93,31.09,15.65,54.88,15.65,26.5,0,42.78-12.93,42.78-32.34,0-16.69-11.27-25.04-33.6-31.51Z"/>
      <path class="st0" d="M5662.08,1499.51c0-24.83-15.23-48.41-50.5-48.41-31.51,0-51.54,22.33-51.54,53.63s19.62,53.62,55.09,53.62c23.58,0,37.14-10.01,45.07-20.24l-22.74-21.7c-3.97,8.97-11.48,11.9-21.71,11.9s-18.57-3.55-20.86-13.57h66.14c.63-2.5,1.05-10.22,1.05-15.23ZM5594.26,1495.34c.84-10.85,7.3-16.28,17.53-16.28,11.27,0,16.07,5.84,16.69,16.28h-34.22Z"/>
      <path class="st0" d="M5267.49,1637.01v-33.38h-106v139.8h37.56v-48.62h58.01v-33.38h-58.01v-24.42h68.44Z"/>
      <path class="st0" d="M5376.42,1686.67c0-24.83-15.24-48.41-50.5-48.41-31.51,0-51.54,22.33-51.54,53.63s19.61,53.63,55.09,53.63c23.58,0,37.14-10.02,45.07-20.24l-22.75-21.7c-3.96,8.97-11.47,11.89-21.7,11.89s-18.57-3.55-20.86-13.56h66.14c.63-2.51,1.05-10.23,1.05-15.24ZM5308.6,1682.5c.83-10.85,7.3-16.27,17.53-16.27,11.27,0,16.06,5.84,16.69,16.27h-34.22Z"/>
      <path class="st0" d="M5452.58,1681.67l-10.64-3.13c-13.36-3.97-16.28-5.43-16.28-8.56,0-2.5,2.51-4.17,7.72-4.17,10.23,0,24.83,4.17,38.19,13.98l12.73-26.71c-8.14-6.05-24.63-14.61-47.37-14.61-27.33,0-45.07,12.32-45.07,33.6,0,17.32,11.68,25.04,32.76,30.67l14.19,3.76c10.43,2.71,13.98,4.17,13.98,7.3,0,2.92-2.71,4.17-8.35,4.17-12.31,0-30.05-7.09-41.94-15.23l-13.98,27.13c10.22,7.93,31.09,15.65,54.88,15.65,26.5,0,42.78-12.94,42.78-32.34,0-16.7-11.27-25.04-33.6-31.51Z"/>
      <path class="st0" d="M5576.32,1714.01l-38.19,1.67,31.93-26.92,24.41-22.12v-26.29h-93.9v29.42h13.36l37.76-1.87-30.04,24.83-23.17,24.41v26.29h98.08v-29.42h-20.24Z"/>
      <path class="st0" d="M5679.61,1704.41c-3.34,5.22-8.77,8.56-13.36,8.56s-7.51-2.72-7.51-8.14v-36.1h25.04v-28.38h-25.04v-28.38l-37.56,16.7v11.68h-14.61v28.38h14.61v41.52c0,20.04,9.81,35.27,36.52,35.27,16.69,0,27.75-7.93,32.13-12.94l-10.22-28.17Z"/>
      <path class="st0" d="M5706.52,1640.35v103.08h37.56v-103.08h-37.56ZM5706.52,1603.63v27.33h37.56v-27.33h-37.56Z"/>
      <path class="st0" d="M5836.73,1640.35l-10.22,41.53-7.31,41.94-7.51-41.94-10.22-41.53h-41.74l35.48,103.08h47.36l35.48-103.08h-41.32Z"/>
      <path class="st0" d="M5936.06,1603.63l-12.73,25.66h28.59l25.66-25.66h-41.52ZM5984.05,1714.84c-3.76,0-5.01-1.46-5.01-6.05v-31.09c0-26.5-16.27-39.44-42.77-39.44-21.5,0-39.65,8.35-52.59,20.04l16.7,27.54c8.55-9.6,21.9-16.07,33.8-16.07,8.35,0,11.48,2.51,12.52,8.35l-27.75,8.55c-22.96,7.1-32.35,16.28-32.35,32.97,0,18.57,11.9,26.09,26.92,26.09,21.08,0,29.01-16.49,32.14-29.84v7.93c0,14.6,11.47,19.61,23.16,19.61h21.28v-28.59h-6.05ZM5945.66,1704.2c0,10.64-5.43,15.44-17.74,15.44-5.43,0-7.93-1.87-7.93-5.21,0-2.72,1.67-4.8,8.76-7.31l16.91-6.05v3.13Z"/>
      <path class="st0" d="M6005.75,1603.63v139.8h37.56v-139.8h-37.56Z"/>
    </g>
    <g>
      <path class="st0" d="M4903.6,1308.65h-354.72c-55.97,0-101.35-45.38-101.35-101.35h101.35c27.98,0,50.67,22.69,50.67,50.68h354.73v-152.03c0-13.96-5.69-26.69-14.87-35.81-9.12-9.18-21.84-14.86-35.81-14.86,0,33.16-15.93,62.61-40.54,81.08-16.94,12.72-38,20.27-60.81,20.27-20.27,0-45.83-5.97-70.15-16.28-42.85-18.01-81.87-49.38-81.87-85.07h-50.68l-30.8-46.17-70.55-105.86h-50.67l35.02,105.01,15.65,47.02h-290.22c-10.04,0-15.07,12.14-7.97,19.24l95.5,80.13v77.99c0,125.94,102.09,228.03,228.03,228.03h329.39c0,11.94-2.42,22.98-6.7,32.83-10.38,23.62-31.46,40.45-55.64,46.37-9.93,2.43-20.35,1.99-30.13-1.02l-6.06-1.87c-14.01-4.32-25.46-9.37-40.97-14.51-14.03-4.65-52.39-10.39-67.38-10.39l-46.5-.73s-152.02,0-152.02,152.02v122.92c0,11.88-6.87,23.08-17.96,27.25-10.02,3.77-20.27,1.46-27.54-4.45-4.84-3.94-8.33-9.57-9.68-16.04l-45.89-229.51c-.05-.45-.11-.84-.22-1.23v-.06c0-.06,0-.17-.06-.23-5.01-24.88-17.29-47.07-34.57-64.35-22.92-22.92-54.62-37.11-89.58-37.11h-25.34l76.01,126.69h-76.01l99.77,167.79,32.72,55.01c12.72,21.4,31.3,38.74,53.49,49.94,12.89,4.17,26.74,6.31,41.16,6.08,40.93-.73,74.37-36.88,74.37-77.81v-124.89s0-50.67,101.35-50.67c32.44,0,64.25,6.42,93.64,18.64,29.45,12.16,56.47,30.12,79.39,53.04l29.67,29.67,50.68,50.67c83.95,0,152.02-68.07,152.02-152.02v-202.7c0-55.97-45.37-101.35-101.35-101.35ZM4622.72,1160.96c12.8,0,23.17,10.38,23.17,23.17s-10.37,23.17-23.17,23.17-23.17-10.37-23.17-23.17,10.38-23.17,23.17-23.17Z"/>
      <path class="st0" d="M5004.95,1882.97c-15.34-10.23-35.33-10.23-50.67,0v-77.56h-92.81l42.14,111.34h152.02l-50.68-33.78Z"/>
      <path class="st0" d="M4650.23,1916.75h152.02l-50.68-33.78c-15.34-10.23-35.33-10.23-50.67,0v-67.57c101.35,0,101.35-101.35,101.35-101.35h-202.7l50.67,202.7Z"/>
      <polygon class="st0" points="4751.58 1055.28 4704.23 984.22 4650.23 903.25 4599.55 903.25 4644.99 1039.62 4650.23 1055.28 4666.84 1055.28 4751.58 1055.28"/>
      <polygon class="st0" points="4830.27 1107.75 4844.2 1070.11 4881.85 1056.18 4844.2 1042.25 4830.27 1004.6 4816.34 1042.25 4778.7 1056.18 4816.34 1070.11 4830.27 1107.75"/>
    </g>
  </g>
  <g>
    <g>
      <path class="st1" d="M730.05,277.21l-14.42-3.28c-12.03-2.73-19.15-5.11-19.15-11.86,0-4.37,4.56-6.56,10.95-6.56,13.13,0,28.82,7.11,38.49,17.33l20.25-26.09c-12.23-12.04-31.02-20.43-54.91-20.43-27.18,0-48.53,13.13-48.53,37.94,0,23.17,17.52,32.47,38.49,36.49l12.23,2.37c16.23,3.1,22.43,6.2,22.43,12.4,0,5.11-5.29,7.12-13.68,7.12-14.23,0-31.01-6.39-41.22-18.79l-20.44,26.45c13.87,14.59,36.12,21.52,59.84,21.52,28.09,0,49.25-12.4,49.25-37.21,0-20.25-12.95-31.38-39.58-37.4Z"/>
      <path class="st1" d="M824.54,227.78l-11.13,22.44h24.99l22.44-22.44h-36.3ZM866.5,325.01c-3.29,0-4.38-1.28-4.38-5.29v-27.18c0-23.17-14.23-34.48-37.4-34.48-18.79,0-34.66,7.3-45.97,17.51l14.6,24.08c7.47-8.39,19.15-14.04,29.55-14.04,7.29,0,10.03,2.19,10.94,7.29l-24.26,7.48c-20.07,6.2-28.27,14.23-28.27,28.82,0,16.24,10.39,22.81,23.53,22.81,18.42,0,25.35-14.41,28.09-26.09v6.93c0,12.77,10.03,17.15,20.25,17.15h18.61v-24.99h-5.29ZM832.93,315.71c0,9.3-4.74,13.49-15.51,13.49-4.74,0-6.93-1.64-6.93-4.56,0-2.37,1.46-4.19,7.66-6.38l14.78-5.29v2.74Z"/>
      <path class="st1" d="M948.03,258.06c-18.42,0-26.99,16.78-29.73,32.29v-30.46h-32.84v90.11h32.84v-45.42c0-14.6,6.93-21.71,14.41-21.71,5.29,0,7.48,3.47,7.48,8.57,0,5.48-3.65,12.41-6.93,16.24h30.1c2.55-4.56,6.2-13.87,6.2-24.81,0-14.96-5.84-24.81-21.53-24.81Z"/>
      <path class="st1" d="M1083.02,259.89h-37.94l-12.22,13.86-18.61,24.44,1.83-30.83v-39.58h-32.84v122.22h32.84v-21.53l11.12-12.4,18.43,33.93h36.66l-33.56-53.63,34.29-36.48Z"/>
      <path class="st1" d="M1132.09,227.78l-11.13,22.44h25l22.43-22.44h-36.3ZM1174.05,325.01c-3.28,0-4.38-1.28-4.38-5.29v-27.18c0-23.17-14.23-34.48-37.39-34.48-18.79,0-34.66,7.3-45.97,17.51l14.59,24.08c7.48-8.39,19.15-14.04,29.55-14.04,7.3,0,10.03,2.19,10.95,7.29l-24.27,7.48c-20.06,6.2-28.27,14.23-28.27,28.82,0,16.24,10.4,22.81,23.53,22.81,18.43,0,25.36-14.41,28.09-26.09v6.93c0,12.77,10.04,17.15,20.25,17.15h18.61v-24.99h-5.29ZM1140.48,315.71c0,9.3-4.74,13.49-15.5,13.49-4.74,0-6.93-1.64-6.93-4.56,0-2.37,1.46-4.19,7.66-6.38l14.77-5.29v2.74Z"/>
      <path class="st1" d="M1255.41,258.06c-18.79,0-27,13.68-29.56,28.64v-26.81h-32.83v90.11h32.83v-49.07c0-14.59,2.38-18.06,11.86-18.06s11.86,5.84,11.86,16.78v50.35h32.83v-63.12c0-18.42-10.21-28.82-26.99-28.82Z"/>
      <path class="st1" d="M1361.57,259.89l-8.75,32.28-7.12,37.4-6.93-37.4-8.57-32.28h-36.85l28.82,83.91h19.52l-1.64,4.38c-2.74,6.93-6.21,8.75-12.77,8.75-7.66,0-15.51-4.19-22.26-10.4l-11.31,28.64c7.48,5.48,20.8,10.58,34.66,10.58,20.07,0,31.92-9.12,39.4-31.37l31.38-94.49h-37.58Z"/>
      <path class="st1" d="M1533.77,227.78l-16.78,59.29-8.94,43.78-8.94-43.78-16.96-59.29h-39.22l41.95,122.22h45.06l41.96-122.22h-38.13Z"/>
      <path class="st1" d="M1623.34,227.78v22.44h26.45v-22.44h-26.45ZM1588.68,227.78v22.44h26.45v-22.44h-26.45ZM1618.6,258.06c-28.83,0-46.89,20.07-46.89,46.88s18.06,46.88,46.89,46.88c30.28,0,48.34-20.06,48.34-46.88s-18.06-46.88-48.34-46.88ZM1619.33,325.56c-8.4,0-14.23-4.93-14.23-20.62s5.83-20.61,14.23-20.61,14.22,4.92,14.22,20.61-5.83,20.62-14.22,20.62Z"/>
      <path class="st1" d="M1683.35,227.78v122.22h32.84v-122.22h-32.84Z"/>
      <path class="st1" d="M1797.55,331.39h-34.66c-6.02,0-8.03-2.37-8.03-6.2,0-1.82.55-3.46,1.28-4.92,6.38,2.91,14.04,4.56,22.8,4.56,25.17,0,41.96-13.5,41.96-33.39,0-11.49-5.48-20.79-14.96-26.63l17.69-17.88-27.36-9.12-3.28,21.89c-4.38-1.09-8.94-1.64-14.05-1.64-25.17,0-41.96,13.5-41.96,33.38,0,11.31,5.48,20.62,14.96,26.45-8.57,3.65-17.88,11.31-17.88,21.35,0,9.3,7.67,13.13,16.79,14.59-13.68.18-23.72,4.38-23.72,13.32,0,10.03,14.23,18.6,45.42,18.6,39.41,0,55.64-15.14,55.64-32.1,0-12.95-8.21-22.26-30.64-22.26ZM1778.94,278.86c6.57,0,11.67,3.83,11.67,12.58s-5.1,12.59-11.67,12.59-11.68-3.83-11.68-12.59,5.11-12.58,11.68-12.58ZM1776.2,363.68c-17.33,0-22.98-2.73-22.98-7.66,0-.91.18-1.64.36-2.19h38.86c5.47,0,8.21.73,8.21,3.65,0,4.01-7.66,6.2-24.45,6.2Z"/>
      <path class="st1" d="M1900.98,259.89l-8.76,32.28-7.11,37.4-6.94-37.4-8.57-32.28h-36.85l28.82,83.91h19.52l-1.64,4.38c-2.74,6.93-6.2,8.75-12.77,8.75-7.66,0-15.5-4.19-22.25-10.4l-11.31,28.64c7.48,5.48,20.79,10.58,34.66,10.58,20.06,0,31.92-9.12,39.4-31.37l31.37-94.49h-37.57Z"/>
      <path class="st1" d="M755.04,398.78l-12.04,35.57-10.76,42.32-10.77-42.32-12.04-35.57h-45.6v122.22h32.83v-31.74l-5.29-60.02,15.33,47.43,7.84,22.44h35.39l7.84-22.44,15.33-47.43-5.29,60.02v31.74h32.83v-122.22h-45.6Z"/>
      <path class="st1" d="M905.89,471.38c0-21.71-13.31-42.32-44.14-42.32-27.55,0-45.06,19.52-45.06,46.88s17.15,46.88,48.16,46.88c20.61,0,32.47-8.75,39.4-17.69l-19.88-18.97c-3.47,7.84-10.03,10.4-18.97,10.4s-16.24-3.1-18.24-11.86h57.82c.55-2.19.91-8.94.91-13.32ZM846.61,467.73c.73-9.48,6.38-14.23,15.32-14.23,9.85,0,14.05,5.11,14.59,14.23h-29.91Z"/>
      <path class="st1" d="M972.48,467l-9.31-2.73c-11.67-3.47-14.22-4.75-14.22-7.48,0-2.19,2.18-3.65,6.74-3.65,8.94,0,21.71,3.65,33.39,12.22l11.13-23.35c-7.12-5.29-21.53-12.77-41.41-12.77-23.9,0-39.41,10.77-39.41,29.37,0,15.14,10.22,21.89,28.64,26.82l12.41,3.28c9.12,2.37,12.22,3.65,12.22,6.39,0,2.55-2.37,3.65-7.3,3.65-10.76,0-26.27-6.21-36.66-13.32l-12.23,23.71c8.94,6.93,27.19,13.68,47.98,13.68,23.17,0,37.4-11.31,37.4-28.27,0-14.59-9.85-21.89-29.37-27.55Z"/>
      <path class="st1" d="M1101.45,471.38c0-21.71-13.32-42.32-44.15-42.32-27.55,0-45.06,19.52-45.06,46.88s17.15,46.88,48.16,46.88c20.61,0,32.47-8.75,39.4-17.69l-19.88-18.97c-3.47,7.84-10.03,10.4-18.97,10.4s-16.24-3.1-18.24-11.86h57.82c.55-2.19.92-8.94.92-13.32ZM1042.16,467.73c.73-9.48,6.38-14.23,15.32-14.23,9.85,0,14.05,5.11,14.6,14.23h-29.92Z"/>
      <path class="st1" d="M1248.29,427.97v-29.19h-92.67v122.22h32.84v-42.5h50.71v-29.19h-50.71v-21.34h59.83Z"/>
      <path class="st1" d="M1343.51,471.38c0-21.71-13.32-42.32-44.15-42.32-27.54,0-45.05,19.52-45.05,46.88s17.14,46.88,48.15,46.88c20.62,0,32.48-8.75,39.41-17.69l-19.89-18.97c-3.46,7.84-10.03,10.4-18.97,10.4s-16.23-3.1-18.24-11.86h57.83c.54-2.19.91-8.94.91-13.32ZM1284.22,467.73c.73-9.48,6.39-14.23,15.33-14.23,9.85,0,14.04,5.11,14.59,14.23h-29.92Z"/>
      <path class="st1" d="M1410.09,467l-9.3-2.73c-11.68-3.47-14.23-4.75-14.23-7.48,0-2.19,2.19-3.65,6.75-3.65,8.94,0,21.71,3.65,33.38,12.22l11.13-23.35c-7.11-5.29-21.53-12.77-41.41-12.77-23.9,0-39.4,10.77-39.4,29.37,0,15.14,10.21,21.89,28.64,26.82l12.4,3.28c9.12,2.37,12.22,3.65,12.22,6.39,0,2.55-2.37,3.65-7.29,3.65-10.77,0-26.27-6.21-36.67-13.32l-12.22,23.71c8.94,6.93,27.18,13.68,47.98,13.68,23.16,0,37.39-11.31,37.39-28.27,0-14.59-9.85-21.89-29.37-27.55Z"/>
      <path class="st1" d="M1518.26,495.28l-33.38,1.46,27.91-23.53,21.34-19.34v-22.99h-82.08v25.73h11.67l33.02-1.65-26.27,21.71-20.25,21.35v22.98h85.74v-25.72h-17.7Z"/>
      <path class="st1" d="M1608.56,486.89c-2.92,4.56-7.66,7.48-11.67,7.48s-6.57-2.37-6.57-7.12v-31.56h21.89v-24.81h-21.89v-24.8l-32.84,14.59v10.21h-12.77v24.81h12.77v36.31c0,17.51,8.58,30.82,31.93,30.82,14.59,0,24.26-6.93,28.09-11.31l-8.94-24.62Z"/>
      <path class="st1" d="M1632.09,430.88v90.12h32.83v-90.12h-32.83ZM1632.09,398.78v23.9h32.83v-23.9h-32.83Z"/>
      <path class="st1" d="M1745.92,430.88l-8.94,36.31-6.39,36.66-6.56-36.66-8.94-36.31h-36.48l31.01,90.12h41.41l31.01-90.12h-36.12Z"/>
      <path class="st1" d="M1832.75,398.78l-11.13,22.44h24.99l22.44-22.44h-36.3ZM1874.71,496.01c-3.29,0-4.38-1.28-4.38-5.29v-27.18c0-23.17-14.23-34.48-37.4-34.48-18.79,0-34.66,7.3-45.97,17.51l14.6,24.08c7.47-8.39,19.15-14.04,29.55-14.04,7.29,0,10.03,2.18,10.94,7.29l-24.26,7.48c-20.07,6.2-28.27,14.23-28.27,28.82,0,16.24,10.39,22.81,23.53,22.81,18.42,0,25.35-14.41,28.09-26.09v6.93c0,12.77,10.03,17.15,20.25,17.15h18.61v-24.99h-5.29ZM1841.14,486.71c0,9.3-4.74,13.49-15.51,13.49-4.74,0-6.93-1.64-6.93-4.56,0-2.37,1.46-4.19,7.66-6.38l14.78-5.29v2.74Z"/>
      <path class="st1" d="M1893.68,398.78v122.22h32.83v-122.22h-32.83Z"/>
    </g>
    <g>
      <path class="st1" d="M469.07,291.56h-204.54c-32.27,0-58.44-26.17-58.44-58.44h58.44c16.13,0,29.22,13.08,29.22,29.22h204.54v-87.66c0-8.05-3.28-15.39-8.57-20.65-5.26-5.29-12.6-8.57-20.65-8.57,0,19.12-9.19,36.1-23.38,46.75-9.77,7.34-21.91,11.69-35.06,11.69-11.69,0-26.43-3.44-40.46-9.38-24.7-10.39-47.2-28.48-47.2-49.06h-29.22l-17.76-26.62-40.68-61.04h-29.22l20.19,60.55,9.03,27.11H67.96c-5.79,0-8.69,7-4.59,11.09l55.06,46.21v44.97c0,72.62,58.87,131.49,131.49,131.49h189.93c0,6.88-1.4,13.24-3.87,18.93-5.98,13.62-18.13,23.32-32.08,26.73-5.72,1.41-11.73,1.15-17.37-.58l-3.5-1.08c-8.08-2.49-14.68-5.41-23.62-8.37-8.09-2.68-30.21-5.99-38.85-5.99l-26.81-.42s-87.66,0-87.66,87.66v70.87c0,6.85-3.96,13.31-10.36,15.72-5.78,2.17-11.69.84-15.88-2.57-2.79-2.27-4.8-5.52-5.58-9.25l-26.46-132.34c-.03-.26-.06-.48-.13-.71v-.03s0-.1-.03-.13c-2.89-14.35-9.97-27.14-19.94-37.11-13.21-13.22-31.49-21.4-51.65-21.4h-14.61l43.83,73.05h-43.83l57.53,96.75,18.86,31.72c7.34,12.34,18.06,22.34,30.85,28.8,7.43,2.4,15.42,3.64,23.73,3.51,23.6-.42,42.89-21.27,42.89-44.87v-72.01s0-29.22,58.44-29.22c18.7,0,37.04,3.7,53.99,10.74,16.98,7.02,32.56,17.37,45.78,30.59l17.1,17.11,29.23,29.22c48.41,0,87.66-39.25,87.66-87.66v-116.88c0-32.28-26.17-58.44-58.44-58.44ZM307.11,206.4c7.37,0,13.36,5.98,13.36,13.36s-5.99,13.36-13.36,13.36-13.36-5.98-13.36-13.36,5.98-13.36,13.36-13.36Z"/>
      <path class="st1" d="M527.5,622.72c-8.85-5.9-20.37-5.9-29.22,0v-44.72h-53.52l24.3,64.2h87.66l-29.22-19.48Z"/>
      <path class="st1" d="M322.96,642.2h87.66l-29.22-19.48c-8.85-5.9-20.37-5.9-29.22,0v-38.96c58.44,0,58.44-58.44,58.44-58.44h-116.88l29.22,116.88Z"/>
      <polygon class="st1" points="381.4 145.46 354.1 104.49 322.96 57.8 293.74 57.8 319.94 136.43 322.96 145.46 332.54 145.46 381.4 145.46"/>
      <polygon class="st1" points="426.78 175.72 434.81 154.01 456.52 145.98 434.81 137.95 426.78 116.24 418.75 137.95 397.04 145.98 418.75 154.01 426.78 175.72"/>
    </g>
  </g>
  <g>
    <g>
      <path d="M2790.05,277.21l-14.42-3.28c-12.03-2.73-19.15-5.11-19.15-11.86,0-4.37,4.56-6.56,10.95-6.56,13.13,0,28.82,7.11,38.49,17.33l20.25-26.09c-12.23-12.04-31.02-20.43-54.91-20.43-27.18,0-48.53,13.13-48.53,37.94,0,23.17,17.52,32.47,38.49,36.49l12.23,2.37c16.23,3.1,22.43,6.2,22.43,12.4,0,5.11-5.29,7.12-13.68,7.12-14.23,0-31.01-6.39-41.22-18.79l-20.44,26.45c13.87,14.59,36.12,21.52,59.84,21.52,28.09,0,49.25-12.4,49.25-37.21,0-20.25-12.95-31.38-39.58-37.4Z"/>
      <path d="M2884.54,227.78l-11.13,22.44h24.99l22.44-22.44h-36.3ZM2926.5,325.01c-3.29,0-4.38-1.28-4.38-5.29v-27.18c0-23.17-14.23-34.48-37.4-34.48-18.79,0-34.66,7.3-45.97,17.51l14.6,24.08c7.47-8.39,19.15-14.04,29.55-14.04,7.29,0,10.03,2.19,10.94,7.29l-24.26,7.48c-20.07,6.2-28.27,14.23-28.27,28.82,0,16.24,10.39,22.81,23.53,22.81,18.42,0,25.35-14.41,28.09-26.09v6.93c0,12.77,10.03,17.15,20.25,17.15h18.61v-24.99h-5.29ZM2892.93,315.71c0,9.3-4.74,13.49-15.51,13.49-4.74,0-6.93-1.64-6.93-4.56,0-2.37,1.46-4.19,7.66-6.38l14.78-5.29v2.74Z"/>
      <path d="M3008.03,258.06c-18.42,0-26.99,16.78-29.73,32.29v-30.46h-32.84v90.11h32.84v-45.42c0-14.6,6.93-21.71,14.41-21.71,5.29,0,7.48,3.47,7.48,8.57,0,5.48-3.65,12.41-6.93,16.24h30.1c2.55-4.56,6.2-13.87,6.2-24.81,0-14.96-5.84-24.81-21.53-24.81Z"/>
      <path d="M3143.02,259.89h-37.94l-12.22,13.86-18.61,24.44,1.83-30.83v-39.58h-32.84v122.22h32.84v-21.53l11.12-12.4,18.43,33.93h36.66l-33.56-53.63,34.29-36.48Z"/>
      <path d="M3192.09,227.78l-11.13,22.44h25l22.43-22.44h-36.3ZM3234.05,325.01c-3.28,0-4.38-1.28-4.38-5.29v-27.18c0-23.17-14.23-34.48-37.39-34.48-18.79,0-34.66,7.3-45.97,17.51l14.59,24.08c7.48-8.39,19.15-14.04,29.55-14.04,7.3,0,10.03,2.19,10.95,7.29l-24.27,7.48c-20.06,6.2-28.27,14.23-28.27,28.82,0,16.24,10.4,22.81,23.53,22.81,18.43,0,25.36-14.41,28.09-26.09v6.93c0,12.77,10.04,17.15,20.25,17.15h18.61v-24.99h-5.29ZM3200.48,315.71c0,9.3-4.74,13.49-15.5,13.49-4.74,0-6.93-1.64-6.93-4.56,0-2.37,1.46-4.19,7.66-6.38l14.77-5.29v2.74Z"/>
      <path d="M3315.41,258.06c-18.79,0-27,13.68-29.56,28.64v-26.81h-32.83v90.11h32.83v-49.07c0-14.59,2.38-18.06,11.86-18.06s11.86,5.84,11.86,16.78v50.35h32.83v-63.12c0-18.42-10.21-28.82-26.99-28.82Z"/>
      <path d="M3421.57,259.89l-8.75,32.28-7.12,37.4-6.93-37.4-8.57-32.28h-36.85l28.82,83.91h19.52l-1.64,4.38c-2.74,6.93-6.21,8.75-12.77,8.75-7.66,0-15.51-4.19-22.26-10.4l-11.31,28.64c7.48,5.48,20.8,10.58,34.66,10.58,20.07,0,31.92-9.12,39.4-31.37l31.38-94.49h-37.58Z"/>
      <path d="M3593.77,227.78l-16.78,59.29-8.94,43.78-8.94-43.78-16.96-59.29h-39.22l41.95,122.22h45.06l41.96-122.22h-38.13Z"/>
      <path d="M3683.34,227.78v22.44h26.45v-22.44h-26.45ZM3648.68,227.78v22.44h26.45v-22.44h-26.45ZM3678.6,258.06c-28.83,0-46.89,20.07-46.89,46.88s18.06,46.88,46.89,46.88c30.28,0,48.34-20.06,48.34-46.88s-18.06-46.88-48.34-46.88ZM3679.33,325.56c-8.4,0-14.23-4.93-14.23-20.62s5.83-20.61,14.23-20.61,14.22,4.92,14.22,20.61-5.83,20.62-14.22,20.62Z"/>
      <path d="M3743.35,227.78v122.22h32.84v-122.22h-32.84Z"/>
      <path d="M3857.55,331.39h-34.66c-6.02,0-8.03-2.37-8.03-6.2,0-1.82.55-3.46,1.28-4.92,6.38,2.91,14.04,4.56,22.8,4.56,25.17,0,41.96-13.5,41.96-33.39,0-11.49-5.48-20.79-14.96-26.63l17.69-17.88-27.36-9.12-3.28,21.89c-4.38-1.09-8.94-1.64-14.05-1.64-25.17,0-41.96,13.5-41.96,33.38,0,11.31,5.48,20.62,14.96,26.45-8.57,3.65-17.88,11.31-17.88,21.35,0,9.3,7.67,13.13,16.79,14.59-13.68.18-23.72,4.38-23.72,13.32,0,10.03,14.23,18.6,45.42,18.6,39.41,0,55.64-15.14,55.64-32.1,0-12.95-8.21-22.26-30.64-22.26ZM3838.94,278.86c6.57,0,11.67,3.83,11.67,12.58s-5.1,12.59-11.67,12.59-11.68-3.83-11.68-12.59,5.11-12.58,11.68-12.58ZM3836.2,363.68c-17.33,0-22.98-2.73-22.98-7.66,0-.91.18-1.64.36-2.19h38.86c5.47,0,8.21.73,8.21,3.65,0,4.01-7.66,6.2-24.45,6.2Z"/>
      <path d="M3960.98,259.89l-8.76,32.28-7.11,37.4-6.94-37.4-8.57-32.28h-36.85l28.82,83.91h19.52l-1.64,4.38c-2.74,6.93-6.2,8.75-12.77,8.75-7.66,0-15.5-4.19-22.25-10.4l-11.31,28.64c7.48,5.48,20.79,10.58,34.66,10.58,20.06,0,31.92-9.12,39.4-31.37l31.37-94.49h-37.57Z"/>
      <path d="M2815.04,398.78l-12.04,35.57-10.76,42.32-10.77-42.32-12.04-35.57h-45.6v122.22h32.83v-31.74l-5.29-60.02,15.33,47.43,7.84,22.44h35.39l7.84-22.44,15.33-47.43-5.29,60.02v31.74h32.83v-122.22h-45.6Z"/>
      <path d="M2965.89,471.38c0-21.71-13.31-42.32-44.14-42.32-27.55,0-45.06,19.52-45.06,46.88s17.15,46.88,48.16,46.88c20.61,0,32.47-8.75,39.4-17.69l-19.88-18.97c-3.47,7.84-10.03,10.4-18.97,10.4s-16.24-3.1-18.24-11.86h57.82c.55-2.19.91-8.94.91-13.32ZM2906.61,467.73c.73-9.48,6.38-14.23,15.32-14.23,9.85,0,14.05,5.11,14.59,14.23h-29.91Z"/>
      <path d="M3032.48,467l-9.31-2.73c-11.67-3.47-14.22-4.75-14.22-7.48,0-2.19,2.18-3.65,6.74-3.65,8.94,0,21.71,3.65,33.39,12.22l11.13-23.35c-7.12-5.29-21.53-12.77-41.41-12.77-23.9,0-39.41,10.77-39.41,29.37,0,15.14,10.22,21.89,28.64,26.82l12.41,3.28c9.12,2.37,12.22,3.65,12.22,6.39,0,2.55-2.37,3.65-7.3,3.65-10.76,0-26.27-6.21-36.66-13.32l-12.23,23.71c8.94,6.93,27.19,13.68,47.98,13.68,23.17,0,37.4-11.31,37.4-28.27,0-14.59-9.85-21.89-29.37-27.55Z"/>
      <path d="M3161.45,471.38c0-21.71-13.32-42.32-44.15-42.32-27.55,0-45.06,19.52-45.06,46.88s17.15,46.88,48.16,46.88c20.61,0,32.47-8.75,39.4-17.69l-19.88-18.97c-3.47,7.84-10.03,10.4-18.97,10.4s-16.24-3.1-18.24-11.86h57.82c.55-2.19.92-8.94.92-13.32ZM3102.16,467.73c.73-9.48,6.38-14.23,15.32-14.23,9.85,0,14.05,5.11,14.6,14.23h-29.92Z"/>
      <path d="M3308.29,427.97v-29.19h-92.67v122.22h32.84v-42.5h50.71v-29.19h-50.71v-21.34h59.83Z"/>
      <path d="M3403.51,471.38c0-21.71-13.32-42.32-44.15-42.32-27.54,0-45.05,19.52-45.05,46.88s17.14,46.88,48.15,46.88c20.62,0,32.48-8.75,39.41-17.69l-19.89-18.97c-3.46,7.84-10.03,10.4-18.97,10.4s-16.23-3.1-18.24-11.86h57.83c.54-2.19.91-8.94.91-13.32ZM3344.22,467.73c.73-9.48,6.39-14.23,15.33-14.23,9.85,0,14.04,5.11,14.59,14.23h-29.92Z"/>
      <path d="M3470.09,467l-9.3-2.73c-11.68-3.47-14.23-4.75-14.23-7.48,0-2.19,2.19-3.65,6.75-3.65,8.94,0,21.71,3.65,33.38,12.22l11.13-23.35c-7.11-5.29-21.53-12.77-41.41-12.77-23.9,0-39.4,10.77-39.4,29.37,0,15.14,10.21,21.89,28.64,26.82l12.4,3.28c9.12,2.37,12.22,3.65,12.22,6.39,0,2.55-2.37,3.65-7.29,3.65-10.77,0-26.27-6.21-36.67-13.32l-12.22,23.71c8.94,6.93,27.18,13.68,47.98,13.68,23.16,0,37.39-11.31,37.39-28.27,0-14.59-9.85-21.89-29.37-27.55Z"/>
      <path d="M3578.26,495.28l-33.38,1.46,27.91-23.53,21.34-19.34v-22.99h-82.08v25.73h11.67l33.02-1.65-26.27,21.71-20.25,21.35v22.98h85.74v-25.72h-17.7Z"/>
      <path d="M3668.56,486.89c-2.92,4.56-7.66,7.48-11.67,7.48s-6.57-2.37-6.57-7.12v-31.56h21.89v-24.81h-21.89v-24.8l-32.84,14.59v10.21h-12.77v24.81h12.77v36.31c0,17.51,8.58,30.82,31.93,30.82,14.59,0,24.26-6.93,28.09-11.31l-8.94-24.62Z"/>
      <path d="M3692.09,430.88v90.12h32.83v-90.12h-32.83ZM3692.09,398.78v23.9h32.83v-23.9h-32.83Z"/>
      <path d="M3805.92,430.88l-8.94,36.31-6.39,36.66-6.56-36.66-8.94-36.31h-36.48l31.01,90.12h41.41l31.01-90.12h-36.12Z"/>
      <path d="M3892.75,398.78l-11.13,22.44h24.99l22.44-22.44h-36.3ZM3934.71,496.01c-3.29,0-4.38-1.28-4.38-5.29v-27.18c0-23.17-14.23-34.48-37.4-34.48-18.79,0-34.66,7.3-45.97,17.51l14.6,24.08c7.47-8.39,19.15-14.04,29.55-14.04,7.29,0,10.03,2.18,10.94,7.29l-24.26,7.48c-20.07,6.2-28.27,14.23-28.27,28.82,0,16.24,10.39,22.81,23.53,22.81,18.42,0,25.35-14.41,28.09-26.09v6.93c0,12.77,10.03,17.15,20.25,17.15h18.61v-24.99h-5.29ZM3901.14,486.71c0,9.3-4.74,13.49-15.51,13.49-4.74,0-6.93-1.64-6.93-4.56,0-2.37,1.46-4.19,7.66-6.38l14.78-5.29v2.74Z"/>
      <path d="M3953.68,398.78v122.22h32.83v-122.22h-32.83Z"/>
    </g>
    <g>
      <path d="M2529.07,291.56h-204.54c-32.27,0-58.44-26.17-58.44-58.44h58.44c16.13,0,29.22,13.08,29.22,29.22h204.54v-87.66c0-8.05-3.28-15.39-8.57-20.65-5.26-5.29-12.6-8.57-20.65-8.57,0,19.12-9.19,36.1-23.38,46.75-9.77,7.34-21.91,11.69-35.06,11.69-11.69,0-26.43-3.44-40.46-9.38-24.7-10.39-47.2-28.48-47.2-49.06h-29.22l-17.76-26.62-40.68-61.04h-29.22l20.19,60.55,9.03,27.11h-167.35c-5.79,0-8.69,7-4.59,11.09l55.06,46.21v44.97c0,72.62,58.87,131.49,131.49,131.49h189.93c0,6.88-1.4,13.24-3.87,18.93-5.98,13.62-18.13,23.32-32.08,26.73-5.72,1.41-11.73,1.15-17.37-.58l-3.5-1.08c-8.08-2.49-14.68-5.41-23.62-8.37-8.09-2.68-30.21-5.99-38.85-5.99l-26.81-.42s-87.66,0-87.66,87.66v70.87c0,6.85-3.96,13.31-10.36,15.72-5.78,2.17-11.69.84-15.88-2.57-2.79-2.27-4.8-5.52-5.58-9.25l-26.46-132.34c-.03-.26-.06-.48-.13-.71v-.03s0-.1-.03-.13c-2.89-14.35-9.97-27.14-19.94-37.11-13.21-13.22-31.49-21.4-51.65-21.4h-14.61l43.83,73.05h-43.83l57.53,96.75,18.86,31.72c7.34,12.34,18.06,22.34,30.85,28.8,7.43,2.4,15.42,3.64,23.73,3.51,23.6-.42,42.89-21.27,42.89-44.87v-72.01s0-29.22,58.44-29.22c18.7,0,37.04,3.7,53.99,10.74,16.98,7.02,32.56,17.37,45.78,30.59l17.1,17.11,29.23,29.22c48.41,0,87.66-39.25,87.66-87.66v-116.88c0-32.28-26.17-58.44-58.44-58.44ZM2367.11,206.4c7.37,0,13.36,5.98,13.36,13.36s-5.99,13.36-13.36,13.36-13.36-5.98-13.36-13.36,5.98-13.36,13.36-13.36Z"/>
      <path d="M2587.5,622.72c-8.85-5.9-20.37-5.9-29.22,0v-44.72h-53.52l24.3,64.2h87.66l-29.22-19.48Z"/>
      <path d="M2382.96,642.2h87.66l-29.22-19.48c-8.85-5.9-20.37-5.9-29.22,0v-38.96c58.44,0,58.44-58.44,58.44-58.44h-116.88l29.22,116.88Z"/>
      <polygon points="2441.4 145.46 2414.1 104.49 2382.96 57.8 2353.74 57.8 2379.94 136.43 2382.96 145.46 2392.54 145.46 2441.4 145.46"/>
      <polygon points="2486.78 175.72 2494.81 154.01 2516.52 145.98 2494.81 137.95 2486.78 116.24 2478.75 137.95 2457.04 145.98 2478.75 154.01 2486.78 175.72"/>
    </g>
  </g>
  <g>
    <g>
      <path class="st0" d="M4850.05,277.21l-14.42-3.28c-12.03-2.73-19.15-5.11-19.15-11.86,0-4.37,4.56-6.56,10.95-6.56,13.13,0,28.82,7.11,38.49,17.33l20.25-26.09c-12.23-12.04-31.02-20.43-54.91-20.43-27.18,0-48.53,13.13-48.53,37.94,0,23.17,17.52,32.47,38.49,36.49l12.23,2.37c16.23,3.1,22.43,6.2,22.43,12.4,0,5.11-5.29,7.12-13.68,7.12-14.23,0-31.01-6.39-41.22-18.79l-20.44,26.45c13.87,14.59,36.12,21.52,59.84,21.52,28.09,0,49.25-12.4,49.25-37.21,0-20.25-12.95-31.38-39.58-37.4Z"/>
      <path class="st0" d="M4944.54,227.78l-11.13,22.44h24.99l22.44-22.44h-36.3ZM4986.5,325.01c-3.29,0-4.38-1.28-4.38-5.29v-27.18c0-23.17-14.23-34.48-37.4-34.48-18.79,0-34.66,7.3-45.97,17.51l14.6,24.08c7.47-8.39,19.15-14.04,29.55-14.04,7.29,0,10.03,2.19,10.94,7.29l-24.26,7.48c-20.07,6.2-28.27,14.23-28.27,28.82,0,16.24,10.39,22.81,23.53,22.81,18.42,0,25.35-14.41,28.09-26.09v6.93c0,12.77,10.03,17.15,20.25,17.15h18.61v-24.99h-5.29ZM4952.93,315.71c0,9.3-4.74,13.49-15.51,13.49-4.74,0-6.93-1.64-6.93-4.56,0-2.37,1.46-4.19,7.66-6.38l14.78-5.29v2.74Z"/>
      <path class="st0" d="M5068.03,258.06c-18.42,0-26.99,16.78-29.73,32.29v-30.46h-32.84v90.11h32.84v-45.42c0-14.6,6.93-21.71,14.41-21.71,5.29,0,7.48,3.47,7.48,8.57,0,5.48-3.65,12.41-6.93,16.24h30.1c2.55-4.56,6.2-13.87,6.2-24.81,0-14.96-5.84-24.81-21.53-24.81Z"/>
      <path class="st0" d="M5203.02,259.89h-37.94l-12.22,13.86-18.61,24.44,1.83-30.83v-39.58h-32.84v122.22h32.84v-21.53l11.12-12.4,18.43,33.93h36.66l-33.56-53.63,34.29-36.48Z"/>
      <path class="st0" d="M5252.09,227.78l-11.13,22.44h25l22.43-22.44h-36.3ZM5294.05,325.01c-3.28,0-4.38-1.28-4.38-5.29v-27.18c0-23.17-14.23-34.48-37.39-34.48-18.79,0-34.66,7.3-45.97,17.51l14.59,24.08c7.48-8.39,19.15-14.04,29.55-14.04,7.3,0,10.03,2.19,10.95,7.29l-24.27,7.48c-20.06,6.2-28.27,14.23-28.27,28.82,0,16.24,10.4,22.81,23.53,22.81,18.43,0,25.36-14.41,28.09-26.09v6.93c0,12.77,10.04,17.15,20.25,17.15h18.61v-24.99h-5.29ZM5260.48,315.71c0,9.3-4.74,13.49-15.5,13.49-4.74,0-6.93-1.64-6.93-4.56,0-2.37,1.46-4.19,7.66-6.38l14.77-5.29v2.74Z"/>
      <path class="st0" d="M5375.41,258.06c-18.79,0-27,13.68-29.56,28.64v-26.81h-32.83v90.11h32.83v-49.07c0-14.59,2.38-18.06,11.86-18.06s11.86,5.84,11.86,16.78v50.35h32.83v-63.12c0-18.42-10.21-28.82-26.99-28.82Z"/>
      <path class="st0" d="M5481.57,259.89l-8.75,32.28-7.12,37.4-6.93-37.4-8.57-32.28h-36.85l28.82,83.91h19.52l-1.64,4.38c-2.74,6.93-6.21,8.75-12.77,8.75-7.66,0-15.51-4.19-22.26-10.4l-11.31,28.64c7.48,5.48,20.8,10.58,34.66,10.58,20.07,0,31.92-9.12,39.4-31.37l31.38-94.49h-37.58Z"/>
      <path class="st0" d="M5653.77,227.78l-16.78,59.29-8.94,43.78-8.94-43.78-16.96-59.29h-39.22l41.95,122.22h45.06l41.96-122.22h-38.13Z"/>
      <path class="st0" d="M5743.34,227.78v22.44h26.45v-22.44h-26.45ZM5708.68,227.78v22.44h26.45v-22.44h-26.45ZM5738.6,258.06c-28.83,0-46.89,20.07-46.89,46.88s18.06,46.88,46.89,46.88c30.28,0,48.34-20.06,48.34-46.88s-18.06-46.88-48.34-46.88ZM5739.33,325.56c-8.4,0-14.23-4.93-14.23-20.62s5.83-20.61,14.23-20.61,14.22,4.92,14.22,20.61-5.83,20.62-14.22,20.62Z"/>
      <path class="st0" d="M5803.35,227.78v122.22h32.84v-122.22h-32.84Z"/>
      <path class="st0" d="M5917.55,331.39h-34.66c-6.02,0-8.03-2.37-8.03-6.2,0-1.82.55-3.46,1.28-4.92,6.38,2.91,14.04,4.56,22.8,4.56,25.17,0,41.96-13.5,41.96-33.39,0-11.49-5.48-20.79-14.96-26.63l17.69-17.88-27.36-9.12-3.28,21.89c-4.38-1.09-8.94-1.64-14.05-1.64-25.17,0-41.96,13.5-41.96,33.38,0,11.31,5.48,20.62,14.96,26.45-8.57,3.65-17.88,11.31-17.88,21.35,0,9.3,7.67,13.13,16.79,14.59-13.68.18-23.72,4.38-23.72,13.32,0,10.03,14.23,18.6,45.42,18.6,39.41,0,55.64-15.14,55.64-32.1,0-12.95-8.21-22.26-30.64-22.26ZM5898.94,278.86c6.57,0,11.67,3.83,11.67,12.58s-5.1,12.59-11.67,12.59-11.68-3.83-11.68-12.59,5.11-12.58,11.68-12.58ZM5896.2,363.68c-17.33,0-22.98-2.73-22.98-7.66,0-.91.18-1.64.36-2.19h38.86c5.47,0,8.21.73,8.21,3.65,0,4.01-7.66,6.2-24.45,6.2Z"/>
      <path class="st0" d="M6020.98,259.89l-8.76,32.28-7.11,37.4-6.94-37.4-8.57-32.28h-36.85l28.82,83.91h19.52l-1.64,4.38c-2.74,6.93-6.2,8.75-12.77,8.75-7.66,0-15.5-4.19-22.25-10.4l-11.31,28.64c7.48,5.48,20.79,10.58,34.66,10.58,20.06,0,31.92-9.12,39.4-31.37l31.37-94.49h-37.57Z"/>
      <path class="st0" d="M4875.04,398.78l-12.04,35.57-10.76,42.32-10.77-42.32-12.04-35.57h-45.6v122.22h32.83v-31.74l-5.29-60.02,15.33,47.43,7.84,22.44h35.39l7.84-22.44,15.33-47.43-5.29,60.02v31.74h32.83v-122.22h-45.6Z"/>
      <path class="st0" d="M5025.89,471.38c0-21.71-13.31-42.32-44.14-42.32-27.55,0-45.06,19.52-45.06,46.88s17.15,46.88,48.16,46.88c20.61,0,32.47-8.75,39.4-17.69l-19.88-18.97c-3.47,7.84-10.03,10.4-18.97,10.4s-16.24-3.1-18.24-11.86h57.82c.55-2.19.91-8.94.91-13.32ZM4966.61,467.73c.73-9.48,6.38-14.23,15.32-14.23,9.85,0,14.05,5.11,14.59,14.23h-29.91Z"/>
      <path class="st0" d="M5092.48,467l-9.31-2.73c-11.67-3.47-14.22-4.75-14.22-7.48,0-2.19,2.18-3.65,6.74-3.65,8.94,0,21.71,3.65,33.39,12.22l11.13-23.35c-7.12-5.29-21.53-12.77-41.41-12.77-23.9,0-39.41,10.77-39.41,29.37,0,15.14,10.22,21.89,28.64,26.82l12.41,3.28c9.12,2.37,12.22,3.65,12.22,6.39,0,2.55-2.37,3.65-7.3,3.65-10.76,0-26.27-6.21-36.66-13.32l-12.23,23.71c8.94,6.93,27.19,13.68,47.98,13.68,23.17,0,37.4-11.31,37.4-28.27,0-14.59-9.85-21.89-29.37-27.55Z"/>
      <path class="st0" d="M5221.45,471.38c0-21.71-13.32-42.32-44.15-42.32-27.55,0-45.06,19.52-45.06,46.88s17.15,46.88,48.16,46.88c20.61,0,32.47-8.75,39.4-17.69l-19.88-18.97c-3.47,7.84-10.03,10.4-18.97,10.4s-16.24-3.1-18.24-11.86h57.82c.55-2.19.92-8.94.92-13.32ZM5162.16,467.73c.73-9.48,6.38-14.23,15.32-14.23,9.85,0,14.05,5.11,14.6,14.23h-29.92Z"/>
      <path class="st0" d="M5368.29,427.97v-29.19h-92.67v122.22h32.84v-42.5h50.71v-29.19h-50.71v-21.34h59.83Z"/>
      <path class="st0" d="M5463.51,471.38c0-21.71-13.32-42.32-44.15-42.32-27.54,0-45.05,19.52-45.05,46.88s17.14,46.88,48.15,46.88c20.62,0,32.48-8.75,39.41-17.69l-19.89-18.97c-3.46,7.84-10.03,10.4-18.97,10.4s-16.23-3.1-18.24-11.86h57.83c.54-2.19.91-8.94.91-13.32ZM5404.22,467.73c.73-9.48,6.39-14.23,15.33-14.23,9.85,0,14.04,5.11,14.59,14.23h-29.92Z"/>
      <path class="st0" d="M5530.09,467l-9.3-2.73c-11.68-3.47-14.23-4.75-14.23-7.48,0-2.19,2.19-3.65,6.75-3.65,8.94,0,21.71,3.65,33.38,12.22l11.13-23.35c-7.11-5.29-21.53-12.77-41.41-12.77-23.9,0-39.4,10.77-39.4,29.37,0,15.14,10.21,21.89,28.64,26.82l12.4,3.28c9.12,2.37,12.22,3.65,12.22,6.39,0,2.55-2.37,3.65-7.29,3.65-10.77,0-26.27-6.21-36.67-13.32l-12.22,23.71c8.94,6.93,27.18,13.68,47.98,13.68,23.16,0,37.39-11.31,37.39-28.27,0-14.59-9.85-21.89-29.37-27.55Z"/>
      <path class="st0" d="M5638.26,495.28l-33.38,1.46,27.91-23.53,21.34-19.34v-22.99h-82.08v25.73h11.67l33.02-1.65-26.27,21.71-20.25,21.35v22.98h85.74v-25.72h-17.7Z"/>
      <path class="st0" d="M5728.56,486.89c-2.92,4.56-7.66,7.48-11.67,7.48s-6.57-2.37-6.57-7.12v-31.56h21.89v-24.81h-21.89v-24.8l-32.84,14.59v10.21h-12.77v24.81h12.77v36.31c0,17.51,8.58,30.82,31.93,30.82,14.59,0,24.26-6.93,28.09-11.31l-8.94-24.62Z"/>
      <path class="st0" d="M5752.09,430.88v90.12h32.83v-90.12h-32.83ZM5752.09,398.78v23.9h32.83v-23.9h-32.83Z"/>
      <path class="st0" d="M5865.92,430.88l-8.94,36.31-6.39,36.66-6.56-36.66-8.94-36.31h-36.48l31.01,90.12h41.41l31.01-90.12h-36.12Z"/>
      <path class="st0" d="M5952.75,398.78l-11.13,22.44h24.99l22.44-22.44h-36.3ZM5994.71,496.01c-3.29,0-4.38-1.28-4.38-5.29v-27.18c0-23.17-14.23-34.48-37.4-34.48-18.79,0-34.66,7.3-45.97,17.51l14.6,24.08c7.47-8.39,19.15-14.04,29.55-14.04,7.29,0,10.03,2.18,10.94,7.29l-24.26,7.48c-20.07,6.2-28.27,14.23-28.27,28.82,0,16.24,10.39,22.81,23.53,22.81,18.42,0,25.35-14.41,28.09-26.09v6.93c0,12.77,10.03,17.15,20.25,17.15h18.61v-24.99h-5.29ZM5961.14,486.71c0,9.3-4.74,13.49-15.51,13.49-4.74,0-6.93-1.64-6.93-4.56,0-2.37,1.46-4.19,7.66-6.38l14.78-5.29v2.74Z"/>
      <path class="st0" d="M6013.68,398.78v122.22h32.83v-122.22h-32.83Z"/>
    </g>
    <g>
      <path class="st0" d="M4589.07,291.56h-204.54c-32.27,0-58.44-26.17-58.44-58.44h58.44c16.13,0,29.22,13.08,29.22,29.22h204.54v-87.66c0-8.05-3.28-15.39-8.57-20.65-5.26-5.29-12.6-8.57-20.65-8.57,0,19.12-9.19,36.1-23.38,46.75-9.77,7.34-21.91,11.69-35.06,11.69-11.69,0-26.43-3.44-40.46-9.38-24.7-10.39-47.2-28.48-47.2-49.06h-29.22l-17.76-26.62-40.68-61.04h-29.22l20.19,60.55,9.03,27.11h-167.35c-5.79,0-8.69,7-4.59,11.09l55.06,46.21v44.97c0,72.62,58.87,131.49,131.49,131.49h189.93c0,6.88-1.4,13.24-3.87,18.93-5.98,13.62-18.13,23.32-32.08,26.73-5.72,1.41-11.73,1.15-17.37-.58l-3.5-1.08c-8.08-2.49-14.68-5.41-23.62-8.37-8.09-2.68-30.21-5.99-38.85-5.99l-26.81-.42s-87.66,0-87.66,87.66v70.87c0,6.85-3.96,13.31-10.36,15.72-5.78,2.17-11.69.84-15.88-2.57-2.79-2.27-4.8-5.52-5.58-9.25l-26.46-132.34c-.03-.26-.06-.48-.13-.71v-.03s0-.1-.03-.13c-2.89-14.35-9.97-27.14-19.94-37.11-13.21-13.22-31.49-21.4-51.65-21.4h-14.61l43.83,73.05h-43.83l57.53,96.75,18.86,31.72c7.34,12.34,18.06,22.34,30.85,28.8,7.43,2.4,15.42,3.64,23.73,3.51,23.6-.42,42.89-21.27,42.89-44.87v-72.01s0-29.22,58.44-29.22c18.7,0,37.04,3.7,53.99,10.74,16.98,7.02,32.56,17.37,45.78,30.59l17.1,17.11,29.23,29.22c48.41,0,87.66-39.25,87.66-87.66v-116.88c0-32.28-26.17-58.44-58.44-58.44ZM4427.11,206.4c7.37,0,13.36,5.98,13.36,13.36s-5.99,13.36-13.36,13.36-13.36-5.98-13.36-13.36,5.98-13.36,13.36-13.36Z"/>
      <path class="st0" d="M4647.5,622.72c-8.85-5.9-20.37-5.9-29.22,0v-44.72h-53.52l24.3,64.2h87.66l-29.22-19.48Z"/>
      <path class="st0" d="M4442.96,642.2h87.66l-29.22-19.48c-8.85-5.9-20.37-5.9-29.22,0v-38.96c58.44,0,58.44-58.44,58.44-58.44h-116.88l29.22,116.88Z"/>
      <polygon class="st0" points="4501.4 145.46 4474.1 104.49 4442.96 57.8 4413.74 57.8 4439.94 136.43 4442.96 145.46 4452.54 145.46 4501.4 145.46"/>
      <polygon class="st0" points="4546.78 175.72 4554.81 154.01 4576.52 145.98 4554.81 137.95 4546.78 116.24 4538.75 137.95 4517.04 145.98 4538.75 154.01 4546.78 175.72"/>
    </g>
  </g>
</svg>